<svg width="1216" height="675" viewBox="0 0 1216 675" fill="none" xmlns="http://www.w3.org/2000/svg">
<rect width="1216" height="675" rx="10" fill="#0F0F0F"/>
<ellipse cx="616.893" cy="342.5" rx="57.2533" ry="56.5" fill="#4C8EF0"/>
<path d="M637.244 338.155C640.611 340.073 640.611 344.926 637.244 346.844L610.38 362.15C607.047 364.049 602.905 361.642 602.905 357.806L602.905 327.194C602.905 323.358 607.047 320.951 610.381 322.85L637.244 338.155Z" fill="white"/>
<path d="M443.46 226.2C442.367 226.2 441.36 226.02 440.44 225.66C439.52 225.3 438.72 224.8 438.04 224.16C437.36 223.507 436.833 222.747 436.46 221.88C436.087 221 435.9 220.04 435.9 219C435.9 217.96 436.087 217.007 436.46 216.14C436.833 215.26 437.36 214.5 438.04 213.86C438.72 213.207 439.52 212.7 440.44 212.34C441.36 211.98 442.36 211.8 443.44 211.8C444.533 211.8 445.533 211.98 446.44 212.34C447.36 212.7 448.16 213.207 448.84 213.86C449.52 214.5 450.047 215.26 450.42 216.14C450.793 217.007 450.98 217.96 450.98 219C450.98 220.04 450.793 221 450.42 221.88C450.047 222.76 449.52 223.52 448.84 224.16C448.16 224.8 447.36 225.3 446.44 225.66C445.533 226.02 444.54 226.2 443.46 226.2ZM443.44 223.92C444.147 223.92 444.8 223.8 445.4 223.56C446 223.32 446.52 222.98 446.96 222.54C447.4 222.087 447.74 221.567 447.98 220.98C448.233 220.38 448.36 219.72 448.36 219C448.36 218.28 448.233 217.627 447.98 217.04C447.74 216.44 447.4 215.92 446.96 215.48C446.52 215.027 446 214.68 445.4 214.44C444.8 214.2 444.147 214.08 443.44 214.08C442.733 214.08 442.08 214.2 441.48 214.44C440.893 214.68 440.373 215.027 439.92 215.48C439.48 215.92 439.133 216.44 438.88 217.04C438.64 217.627 438.52 218.28 438.52 219C438.52 219.707 438.64 220.36 438.88 220.96C439.133 221.56 439.48 222.087 439.92 222.54C440.36 222.98 440.88 223.32 441.48 223.56C442.08 223.8 442.733 223.92 443.44 223.92ZM458.675 226.2C457.795 226.2 457.008 226.067 456.315 225.8C455.621 225.533 455.021 225.127 454.515 224.58C454.021 224.02 453.641 223.313 453.375 222.46C453.108 221.607 452.975 220.593 452.975 219.42C452.975 218.567 453.048 217.787 453.195 217.08C453.341 216.373 453.561 215.74 453.855 215.18C454.148 214.607 454.515 214.1 454.955 213.66C455.408 213.22 455.935 212.853 456.535 212.56C457.135 212.267 457.815 212.04 458.575 211.88L463.535 210.82L463.895 213.06L459.395 213.98C459.141 214.033 458.835 214.113 458.475 214.22C458.128 214.313 457.768 214.46 457.395 214.66C457.035 214.847 456.695 215.12 456.375 215.48C456.068 215.827 455.815 216.28 455.615 216.84C455.428 217.387 455.335 218.073 455.335 218.9C455.335 219.153 455.341 219.347 455.355 219.48C455.381 219.6 455.401 219.733 455.415 219.88C455.441 220.013 455.455 220.213 455.455 220.48L454.515 219.5C454.781 218.82 455.148 218.24 455.615 217.76C456.095 217.267 456.648 216.893 457.275 216.64C457.915 216.373 458.608 216.24 459.355 216.24C460.355 216.24 461.241 216.447 462.015 216.86C462.788 217.273 463.395 217.853 463.835 218.6C464.275 219.347 464.495 220.193 464.495 221.14C464.495 222.127 464.255 223 463.775 223.76C463.295 224.52 462.615 225.12 461.735 225.56C460.868 225.987 459.848 226.2 458.675 226.2ZM458.875 224.18C459.475 224.18 460.001 224.053 460.455 223.8C460.921 223.533 461.281 223.173 461.535 222.72C461.801 222.267 461.935 221.76 461.935 221.2C461.935 220.64 461.801 220.153 461.535 219.74C461.281 219.313 460.921 218.973 460.455 218.72C460.001 218.467 459.461 218.34 458.835 218.34C458.235 218.34 457.695 218.46 457.215 218.7C456.748 218.94 456.381 219.273 456.115 219.7C455.861 220.113 455.735 220.593 455.735 221.14C455.735 221.7 455.868 222.213 456.135 222.68C456.401 223.147 456.768 223.513 457.235 223.78C457.715 224.047 458.261 224.18 458.875 224.18ZM478.922 226V223.84L478.782 223.38V219.6C478.782 218.867 478.562 218.3 478.122 217.9C477.682 217.487 477.015 217.28 476.122 217.28C475.522 217.28 474.928 217.373 474.342 217.56C473.768 217.747 473.282 218.007 472.882 218.34L471.902 216.52C472.475 216.08 473.155 215.753 473.942 215.54C474.742 215.313 475.568 215.2 476.422 215.2C477.968 215.2 479.162 215.573 480.002 216.32C480.855 217.053 481.282 218.193 481.282 219.74V226H478.922ZM475.562 226.14C474.762 226.14 474.062 226.007 473.462 225.74C472.862 225.46 472.395 225.08 472.062 224.6C471.742 224.107 471.582 223.553 471.582 222.94C471.582 222.34 471.722 221.8 472.002 221.32C472.295 220.84 472.768 220.46 473.422 220.18C474.075 219.9 474.942 219.76 476.022 219.76H479.122V221.42H476.202C475.348 221.42 474.775 221.56 474.482 221.84C474.188 222.107 474.042 222.44 474.042 222.84C474.042 223.293 474.222 223.653 474.582 223.92C474.942 224.187 475.442 224.32 476.082 224.32C476.695 224.32 477.242 224.18 477.722 223.9C478.215 223.62 478.568 223.207 478.782 222.66L479.202 224.16C478.962 224.787 478.528 225.273 477.902 225.62C477.288 225.967 476.508 226.14 475.562 226.14ZM492.035 226L488.175 220.88L490.215 219.62L494.975 226H492.035ZM484.375 226V215.32H486.875V226H484.375ZM486.135 221.72V219.64H489.755V221.72H486.135ZM490.455 220.96L488.115 220.68L492.035 215.32H494.715L490.455 220.96ZM501.247 226.14C500.127 226.14 499.127 225.907 498.247 225.44C497.38 224.96 496.7 224.307 496.207 223.48C495.714 222.653 495.467 221.713 495.467 220.66C495.467 219.593 495.714 218.653 496.207 217.84C496.7 217.013 497.38 216.367 498.247 215.9C499.127 215.433 500.127 215.2 501.247 215.2C502.287 215.2 503.2 215.413 503.987 215.84C504.787 216.253 505.394 216.867 505.807 217.68L503.887 218.8C503.567 218.293 503.174 217.92 502.707 217.68C502.254 217.44 501.76 217.32 501.227 217.32C500.614 217.32 500.06 217.453 499.567 217.72C499.074 217.987 498.687 218.373 498.407 218.88C498.127 219.373 497.987 219.967 497.987 220.66C497.987 221.353 498.127 221.953 498.407 222.46C498.687 222.953 499.074 223.333 499.567 223.6C500.06 223.867 500.614 224 501.227 224C501.76 224 502.254 223.88 502.707 223.64C503.174 223.4 503.567 223.027 503.887 222.52L505.807 223.64C505.394 224.44 504.787 225.06 503.987 225.5C503.2 225.927 502.287 226.14 501.247 226.14ZM512.832 226.14C511.645 226.14 510.605 225.907 509.712 225.44C508.832 224.96 508.145 224.307 507.652 223.48C507.172 222.653 506.932 221.713 506.932 220.66C506.932 219.593 507.165 218.653 507.632 217.84C508.112 217.013 508.765 216.367 509.592 215.9C510.432 215.433 511.385 215.2 512.452 215.2C513.492 215.2 514.419 215.427 515.232 215.88C516.045 216.333 516.685 216.973 517.152 217.8C517.619 218.627 517.852 219.6 517.852 220.72C517.852 220.827 517.845 220.947 517.832 221.08C517.832 221.213 517.825 221.34 517.812 221.46H508.912V219.8H516.492L515.512 220.32C515.525 219.707 515.399 219.167 515.132 218.7C514.865 218.233 514.499 217.867 514.032 217.6C513.579 217.333 513.052 217.2 512.452 217.2C511.839 217.2 511.299 217.333 510.832 217.6C510.379 217.867 510.019 218.24 509.752 218.72C509.499 219.187 509.372 219.74 509.372 220.38V220.78C509.372 221.42 509.519 221.987 509.812 222.48C510.105 222.973 510.519 223.353 511.052 223.62C511.585 223.887 512.199 224.02 512.892 224.02C513.492 224.02 514.032 223.927 514.512 223.74C514.992 223.553 515.419 223.26 515.792 222.86L517.132 224.4C516.652 224.96 516.045 225.393 515.312 225.7C514.592 225.993 513.765 226.14 512.832 226.14ZM518.89 225.98L519.01 223.88C519.103 223.893 519.19 223.907 519.27 223.92C519.35 223.933 519.423 223.94 519.49 223.94C519.903 223.94 520.223 223.813 520.45 223.56C520.676 223.307 520.843 222.967 520.95 222.54C521.07 222.1 521.15 221.613 521.19 221.08C521.243 220.533 521.283 219.987 521.31 219.44L521.49 215.32H530.13V226H527.63V216.76L528.21 217.44H523.13L523.67 216.74L523.53 219.56C523.49 220.507 523.41 221.387 523.29 222.2C523.183 223 523.01 223.7 522.77 224.3C522.543 224.9 522.223 225.367 521.81 225.7C521.41 226.033 520.896 226.2 520.27 226.2C520.07 226.2 519.85 226.18 519.61 226.14C519.383 226.1 519.143 226.047 518.89 225.98ZM538.476 226.14C537.29 226.14 536.25 225.907 535.356 225.44C534.476 224.96 533.79 224.307 533.296 223.48C532.816 222.653 532.576 221.713 532.576 220.66C532.576 219.593 532.81 218.653 533.276 217.84C533.756 217.013 534.41 216.367 535.236 215.9C536.076 215.433 537.03 215.2 538.096 215.2C539.136 215.2 540.063 215.427 540.876 215.88C541.69 216.333 542.33 216.973 542.796 217.8C543.263 218.627 543.496 219.6 543.496 220.72C543.496 220.827 543.49 220.947 543.476 221.08C543.476 221.213 543.47 221.34 543.456 221.46H534.556V219.8H542.136L541.156 220.32C541.17 219.707 541.043 219.167 540.776 218.7C540.51 218.233 540.143 217.867 539.676 217.6C539.223 217.333 538.696 217.2 538.096 217.2C537.483 217.2 536.943 217.333 536.476 217.6C536.023 217.867 535.663 218.24 535.396 218.72C535.143 219.187 535.016 219.74 535.016 220.38V220.78C535.016 221.42 535.163 221.987 535.456 222.48C535.75 222.973 536.163 223.353 536.696 223.62C537.23 223.887 537.843 224.02 538.536 224.02C539.136 224.02 539.676 223.927 540.156 223.74C540.636 223.553 541.063 223.26 541.436 222.86L542.776 224.4C542.296 224.96 541.69 225.393 540.956 225.7C540.236 225.993 539.41 226.14 538.476 226.14ZM552.151 226.14C551.284 226.14 550.491 225.94 549.771 225.54C549.064 225.14 548.497 224.54 548.071 223.74C547.657 222.927 547.451 221.9 547.451 220.66C547.451 219.407 547.651 218.38 548.051 217.58C548.464 216.78 549.024 216.187 549.731 215.8C550.437 215.4 551.244 215.2 552.151 215.2C553.204 215.2 554.131 215.427 554.931 215.88C555.744 216.333 556.384 216.967 556.851 217.78C557.331 218.593 557.571 219.553 557.571 220.66C557.571 221.767 557.331 222.733 556.851 223.56C556.384 224.373 555.744 225.007 554.931 225.46C554.131 225.913 553.204 226.14 552.151 226.14ZM546.231 229.88V215.32H548.611V217.84L548.531 220.68L548.731 223.52V229.88H546.231ZM551.871 224C552.471 224 553.004 223.867 553.471 223.6C553.951 223.333 554.331 222.947 554.611 222.44C554.891 221.933 555.031 221.34 555.031 220.66C555.031 219.967 554.891 219.373 554.611 218.88C554.331 218.373 553.951 217.987 553.471 217.72C553.004 217.453 552.471 217.32 551.871 217.32C551.271 217.32 550.731 217.453 550.251 217.72C549.771 217.987 549.391 218.373 549.111 218.88C548.831 219.373 548.691 219.967 548.691 220.66C548.691 221.34 548.831 221.933 549.111 222.44C549.391 222.947 549.771 223.333 550.251 223.6C550.731 223.867 551.271 224 551.871 224ZM566.402 226V223.84L566.262 223.38V219.6C566.262 218.867 566.042 218.3 565.602 217.9C565.162 217.487 564.496 217.28 563.602 217.28C563.002 217.28 562.409 217.373 561.822 217.56C561.249 217.747 560.762 218.007 560.362 218.34L559.382 216.52C559.956 216.08 560.636 215.753 561.422 215.54C562.222 215.313 563.049 215.2 563.902 215.2C565.449 215.2 566.642 215.573 567.482 216.32C568.336 217.053 568.762 218.193 568.762 219.74V226H566.402ZM563.042 226.14C562.242 226.14 561.542 226.007 560.942 225.74C560.342 225.46 559.876 225.08 559.542 224.6C559.222 224.107 559.062 223.553 559.062 222.94C559.062 222.34 559.202 221.8 559.482 221.32C559.776 220.84 560.249 220.46 560.902 220.18C561.556 219.9 562.422 219.76 563.502 219.76H566.602V221.42H563.682C562.829 221.42 562.256 221.56 561.962 221.84C561.669 222.107 561.522 222.44 561.522 222.84C561.522 223.293 561.702 223.653 562.062 223.92C562.422 224.187 562.922 224.32 563.562 224.32C564.176 224.32 564.722 224.18 565.202 223.9C565.696 223.62 566.049 223.207 566.262 222.66L566.682 224.16C566.442 224.787 566.009 225.273 565.382 225.62C564.769 225.967 563.989 226.14 563.042 226.14ZM571.856 226V215.32H574.356V223.88H579.456V215.32H581.956V226H571.856ZM581.236 228.38V225.94L581.816 226H579.456V223.88H583.576V228.38H581.236ZM585.801 226V215.32H588.301V222.36L594.201 215.32H596.481V226H593.981V218.96L588.101 226H585.801ZM604.604 226.14C603.511 226.14 602.537 225.907 601.684 225.44C600.831 224.96 600.157 224.307 599.664 223.48C599.171 222.653 598.924 221.713 598.924 220.66C598.924 219.593 599.171 218.653 599.664 217.84C600.157 217.013 600.831 216.367 601.684 215.9C602.537 215.433 603.511 215.2 604.604 215.2C605.711 215.2 606.691 215.433 607.544 215.9C608.411 216.367 609.084 217.007 609.564 217.82C610.057 218.633 610.304 219.58 610.304 220.66C610.304 221.713 610.057 222.653 609.564 223.48C609.084 224.307 608.411 224.96 607.544 225.44C606.691 225.907 605.711 226.14 604.604 226.14ZM604.604 224C605.217 224 605.764 223.867 606.244 223.6C606.724 223.333 607.097 222.947 607.364 222.44C607.644 221.933 607.784 221.34 607.784 220.66C607.784 219.967 607.644 219.373 607.364 218.88C607.097 218.373 606.724 217.987 606.244 217.72C605.764 217.453 605.224 217.32 604.624 217.32C604.011 217.32 603.464 217.453 602.984 217.72C602.517 217.987 602.144 218.373 601.864 218.88C601.584 219.373 601.444 219.967 601.444 220.66C601.444 221.34 601.584 221.933 601.864 222.44C602.144 222.947 602.517 223.333 602.984 223.6C603.464 223.867 604.004 224 604.604 224ZM612.774 226V215.32H615.274V219.66H620.654V215.32H623.154V226H620.654V221.78H615.274V226H612.774ZM626.504 226V215.32H629.004V219.66H634.384V215.32H636.884V226H634.384V221.78H629.004V226H626.504ZM644.995 226.14C643.901 226.14 642.928 225.907 642.075 225.44C641.221 224.96 640.548 224.307 640.055 223.48C639.561 222.653 639.315 221.713 639.315 220.66C639.315 219.593 639.561 218.653 640.055 217.84C640.548 217.013 641.221 216.367 642.075 215.9C642.928 215.433 643.901 215.2 644.995 215.2C646.101 215.2 647.081 215.433 647.935 215.9C648.801 216.367 649.475 217.007 649.955 217.82C650.448 218.633 650.695 219.58 650.695 220.66C650.695 221.713 650.448 222.653 649.955 223.48C649.475 224.307 648.801 224.96 647.935 225.44C647.081 225.907 646.101 226.14 644.995 226.14ZM644.995 224C645.608 224 646.155 223.867 646.635 223.6C647.115 223.333 647.488 222.947 647.755 222.44C648.035 221.933 648.175 221.34 648.175 220.66C648.175 219.967 648.035 219.373 647.755 218.88C647.488 218.373 647.115 217.987 646.635 217.72C646.155 217.453 645.615 217.32 645.015 217.32C644.401 217.32 643.855 217.453 643.375 217.72C642.908 217.987 642.535 218.373 642.255 218.88C641.975 219.373 641.835 219.967 641.835 220.66C641.835 221.34 641.975 221.933 642.255 222.44C642.535 222.947 642.908 223.333 643.375 223.6C643.855 223.867 644.395 224 644.995 224ZM653.164 226V215.32H655.664V222.36L661.564 215.32H663.844V226H661.344V218.96L655.464 226H653.164ZM658.344 214.06C657.278 214.06 656.458 213.813 655.884 213.32C655.311 212.813 655.018 212.08 655.004 211.12H656.664C656.678 211.6 656.824 211.98 657.104 212.26C657.398 212.54 657.804 212.68 658.324 212.68C658.831 212.68 659.231 212.54 659.524 212.26C659.831 211.98 659.991 211.6 660.004 211.12H661.704C661.691 212.08 661.391 212.813 660.804 213.32C660.231 213.813 659.411 214.06 658.344 214.06ZM672.735 226V215.32H682.975V226H680.495V216.86L681.075 217.44H674.655L675.235 216.86V226H672.735ZM692.268 226.14C691.401 226.14 690.608 225.94 689.888 225.54C689.181 225.14 688.615 224.54 688.188 223.74C687.775 222.927 687.568 221.9 687.568 220.66C687.568 219.407 687.768 218.38 688.168 217.58C688.581 216.78 689.141 216.187 689.848 215.8C690.555 215.4 691.361 215.2 692.268 215.2C693.321 215.2 694.248 215.427 695.048 215.88C695.861 216.333 696.501 216.967 696.968 217.78C697.448 218.593 697.688 219.553 697.688 220.66C697.688 221.767 697.448 222.733 696.968 223.56C696.501 224.373 695.861 225.007 695.048 225.46C694.248 225.913 693.321 226.14 692.268 226.14ZM686.348 229.88V215.32H688.728V217.84L688.648 220.68L688.848 223.52V229.88H686.348ZM691.988 224C692.588 224 693.121 223.867 693.588 223.6C694.068 223.333 694.448 222.947 694.728 222.44C695.008 221.933 695.148 221.34 695.148 220.66C695.148 219.967 695.008 219.373 694.728 218.88C694.448 218.373 694.068 217.987 693.588 217.72C693.121 217.453 692.588 217.32 691.988 217.32C691.388 217.32 690.848 217.453 690.368 217.72C689.888 217.987 689.508 218.373 689.228 218.88C688.948 219.373 688.808 219.967 688.808 220.66C688.808 221.34 688.948 221.933 689.228 222.44C689.508 222.947 689.888 223.333 690.368 223.6C690.848 223.867 691.388 224 691.988 224ZM704.936 226.14C703.843 226.14 702.869 225.907 702.016 225.44C701.163 224.96 700.489 224.307 699.996 223.48C699.503 222.653 699.256 221.713 699.256 220.66C699.256 219.593 699.503 218.653 699.996 217.84C700.489 217.013 701.163 216.367 702.016 215.9C702.869 215.433 703.843 215.2 704.936 215.2C706.043 215.2 707.023 215.433 707.876 215.9C708.743 216.367 709.416 217.007 709.896 217.82C710.389 218.633 710.636 219.58 710.636 220.66C710.636 221.713 710.389 222.653 709.896 223.48C709.416 224.307 708.743 224.96 707.876 225.44C707.023 225.907 706.043 226.14 704.936 226.14ZM704.936 224C705.549 224 706.096 223.867 706.576 223.6C707.056 223.333 707.429 222.947 707.696 222.44C707.976 221.933 708.116 221.34 708.116 220.66C708.116 219.967 707.976 219.373 707.696 218.88C707.429 218.373 707.056 217.987 706.576 217.72C706.096 217.453 705.556 217.32 704.956 217.32C704.343 217.32 703.796 217.453 703.316 217.72C702.849 217.987 702.476 218.373 702.196 218.88C701.916 219.373 701.776 219.967 701.776 220.66C701.776 221.34 701.916 221.933 702.196 222.44C702.476 222.947 702.849 223.333 703.316 223.6C703.796 223.867 704.336 224 704.936 224ZM713.106 226V215.32H721.306V217.44H715.026L715.606 216.88V226H713.106ZM729.045 226.14C728.179 226.14 727.385 225.94 726.665 225.54C725.959 225.14 725.392 224.54 724.965 223.74C724.552 222.927 724.345 221.9 724.345 220.66C724.345 219.407 724.545 218.38 724.945 217.58C725.359 216.78 725.919 216.187 726.625 215.8C727.332 215.4 728.139 215.2 729.045 215.2C730.099 215.2 731.025 215.427 731.825 215.88C732.639 216.333 733.279 216.967 733.745 217.78C734.225 218.593 734.465 219.553 734.465 220.66C734.465 221.767 734.225 222.733 733.745 223.56C733.279 224.373 732.639 225.007 731.825 225.46C731.025 225.913 730.099 226.14 729.045 226.14ZM723.125 229.88V215.32H725.505V217.84L725.425 220.68L725.625 223.52V229.88H723.125ZM728.765 224C729.365 224 729.899 223.867 730.365 223.6C730.845 223.333 731.225 222.947 731.505 222.44C731.785 221.933 731.925 221.34 731.925 220.66C731.925 219.967 731.785 219.373 731.505 218.88C731.225 218.373 730.845 217.987 730.365 217.72C729.899 217.453 729.365 217.32 728.765 217.32C728.165 217.32 727.625 217.453 727.145 217.72C726.665 217.987 726.285 218.373 726.005 218.88C725.725 219.373 725.585 219.967 725.585 220.66C725.585 221.34 725.725 221.933 726.005 222.44C726.285 222.947 726.665 223.333 727.145 223.6C727.625 223.867 728.165 224 728.765 224ZM743.297 226V223.84L743.157 223.38V219.6C743.157 218.867 742.937 218.3 742.497 217.9C742.057 217.487 741.39 217.28 740.497 217.28C739.897 217.28 739.303 217.373 738.717 217.56C738.143 217.747 737.657 218.007 737.257 218.34L736.277 216.52C736.85 216.08 737.53 215.753 738.317 215.54C739.117 215.313 739.943 215.2 740.797 215.2C742.343 215.2 743.537 215.573 744.377 216.32C745.23 217.053 745.657 218.193 745.657 219.74V226H743.297ZM739.937 226.14C739.137 226.14 738.437 226.007 737.837 225.74C737.237 225.46 736.77 225.08 736.437 224.6C736.117 224.107 735.957 223.553 735.957 222.94C735.957 222.34 736.097 221.8 736.377 221.32C736.67 220.84 737.143 220.46 737.797 220.18C738.45 219.9 739.317 219.76 740.397 219.76H743.497V221.42H740.577C739.723 221.42 739.15 221.56 738.857 221.84C738.563 222.107 738.417 222.44 738.417 222.84C738.417 223.293 738.597 223.653 738.957 223.92C739.317 224.187 739.817 224.32 740.457 224.32C741.07 224.32 741.617 224.18 742.097 223.9C742.59 223.62 742.943 223.207 743.157 222.66L743.577 224.16C743.337 224.787 742.903 225.273 742.277 225.62C741.663 225.967 740.883 226.14 739.937 226.14ZM748.75 226V215.32H751.37L755.67 222.9H754.63L759.15 215.32H761.49L761.51 226H759.25V218L759.65 218.26L755.65 224.88H754.57L750.55 218.08L751.03 217.96V226H748.75ZM764.864 226V215.32H767.484L771.784 222.9H770.744L775.264 215.32H777.604L777.624 226H775.364V218L775.764 218.26L771.764 224.88H770.684L766.664 218.08L767.144 217.96V226H764.864ZM785.957 226.14C784.77 226.14 783.73 225.907 782.837 225.44C781.957 224.96 781.27 224.307 780.777 223.48C780.297 222.653 780.057 221.713 780.057 220.66C780.057 219.593 780.29 218.653 780.757 217.84C781.237 217.013 781.89 216.367 782.717 215.9C783.557 215.433 784.51 215.2 785.577 215.2C786.617 215.2 787.544 215.427 788.357 215.88C789.17 216.333 789.81 216.973 790.277 217.8C790.744 218.627 790.977 219.6 790.977 220.72C790.977 220.827 790.97 220.947 790.957 221.08C790.957 221.213 790.95 221.34 790.937 221.46H782.037V219.8H789.617L788.637 220.32C788.65 219.707 788.524 219.167 788.257 218.7C787.99 218.233 787.624 217.867 787.157 217.6C786.704 217.333 786.177 217.2 785.577 217.2C784.964 217.2 784.424 217.333 783.957 217.6C783.504 217.867 783.144 218.24 782.877 218.72C782.624 219.187 782.497 219.74 782.497 220.38V220.78C782.497 221.42 782.644 221.987 782.937 222.48C783.23 222.973 783.644 223.353 784.177 223.62C784.71 223.887 785.324 224.02 786.017 224.02C786.617 224.02 787.157 223.927 787.637 223.74C788.117 223.553 788.544 223.26 788.917 222.86L790.257 224.4C789.777 224.96 789.17 225.393 788.437 225.7C787.717 225.993 786.89 226.14 785.957 226.14Z" fill="white"/>
</svg>
