<svg width="728" height="345" viewBox="0 0 728 345" fill="none" xmlns="http://www.w3.org/2000/svg">
<rect width="728" height="345" rx="10" fill="#0F0F0F"/>
<circle cx="364.5" cy="210.5" r="44.5" fill="#4C8EF0"/>
<path d="M378.744 206.17C382.078 208.094 382.078 212.906 378.744 214.83L361.128 225.001C357.794 226.925 353.628 224.52 353.628 220.671L353.628 200.329C353.628 196.48 357.794 194.074 361.128 195.999L378.744 206.17Z" fill="white"/>
<path d="M268.377 110.18C267.393 110.18 266.487 110.018 265.659 109.694C264.831 109.37 264.111 108.92 263.499 108.344C262.887 107.756 262.413 107.072 262.077 106.292C261.741 105.5 261.573 104.636 261.573 103.7C261.573 102.764 261.741 101.906 262.077 101.126C262.413 100.334 262.887 99.65 263.499 99.074C264.111 98.486 264.831 98.03 265.659 97.706C266.487 97.382 267.387 97.22 268.359 97.22C269.343 97.22 270.243 97.382 271.059 97.706C271.887 98.03 272.607 98.486 273.219 99.074C273.831 99.65 274.305 100.334 274.641 101.126C274.977 101.906 275.145 102.764 275.145 103.7C275.145 104.636 274.977 105.5 274.641 106.292C274.305 107.084 273.831 107.768 273.219 108.344C272.607 108.92 271.887 109.37 271.059 109.694C270.243 110.018 269.349 110.18 268.377 110.18ZM268.359 108.128C268.995 108.128 269.583 108.02 270.123 107.804C270.663 107.588 271.131 107.282 271.527 106.886C271.923 106.478 272.229 106.01 272.445 105.482C272.673 104.942 272.787 104.348 272.787 103.7C272.787 103.052 272.673 102.464 272.445 101.936C272.229 101.396 271.923 100.928 271.527 100.532C271.131 100.124 270.663 99.812 270.123 99.596C269.583 99.38 268.995 99.272 268.359 99.272C267.723 99.272 267.135 99.38 266.595 99.596C266.067 99.812 265.599 100.124 265.191 100.532C264.795 100.928 264.483 101.396 264.255 101.936C264.039 102.464 263.931 103.052 263.931 103.7C263.931 104.336 264.039 104.924 264.255 105.464C264.483 106.004 264.795 106.478 265.191 106.886C265.587 107.282 266.055 107.588 266.595 107.804C267.135 108.02 267.723 108.128 268.359 108.128ZM282.07 110.18C281.278 110.18 280.57 110.06 279.946 109.82C279.322 109.58 278.782 109.214 278.326 108.722C277.882 108.218 277.54 107.582 277.3 106.814C277.06 106.046 276.94 105.134 276.94 104.078C276.94 103.31 277.006 102.608 277.138 101.972C277.27 101.336 277.468 100.766 277.732 100.262C277.996 99.746 278.326 99.29 278.722 98.894C279.13 98.498 279.604 98.168 280.144 97.904C280.684 97.64 281.296 97.436 281.98 97.292L286.444 96.338L286.768 98.354L282.718 99.182C282.49 99.23 282.214 99.302 281.89 99.398C281.578 99.482 281.254 99.614 280.918 99.794C280.594 99.962 280.288 100.208 280 100.532C279.724 100.844 279.496 101.252 279.316 101.756C279.148 102.248 279.064 102.866 279.064 103.61C279.064 103.838 279.07 104.012 279.082 104.132C279.106 104.24 279.124 104.36 279.136 104.492C279.16 104.612 279.172 104.792 279.172 105.032L278.326 104.15C278.566 103.538 278.896 103.016 279.316 102.584C279.748 102.14 280.246 101.804 280.81 101.576C281.386 101.336 282.01 101.216 282.682 101.216C283.582 101.216 284.38 101.402 285.076 101.774C285.772 102.146 286.318 102.668 286.714 103.34C287.11 104.012 287.308 104.774 287.308 105.626C287.308 106.514 287.092 107.3 286.66 107.984C286.228 108.668 285.616 109.208 284.824 109.604C284.044 109.988 283.126 110.18 282.07 110.18ZM282.25 108.362C282.79 108.362 283.264 108.248 283.672 108.02C284.092 107.78 284.416 107.456 284.644 107.048C284.884 106.64 285.004 106.184 285.004 105.68C285.004 105.176 284.884 104.738 284.644 104.366C284.416 103.982 284.092 103.676 283.672 103.448C283.264 103.22 282.778 103.106 282.214 103.106C281.674 103.106 281.188 103.214 280.756 103.43C280.336 103.646 280.006 103.946 279.766 104.33C279.538 104.702 279.424 105.134 279.424 105.626C279.424 106.13 279.544 106.592 279.784 107.012C280.024 107.432 280.354 107.762 280.774 108.002C281.206 108.242 281.698 108.362 282.25 108.362ZM300.292 110V108.056L300.166 107.642V104.24C300.166 103.58 299.968 103.07 299.572 102.71C299.176 102.338 298.576 102.152 297.772 102.152C297.232 102.152 296.698 102.236 296.17 102.404C295.654 102.572 295.216 102.806 294.856 103.106L293.974 101.468C294.49 101.072 295.102 100.778 295.81 100.586C296.53 100.382 297.274 100.28 298.042 100.28C299.434 100.28 300.508 100.616 301.264 101.288C302.032 101.948 302.416 102.974 302.416 104.366V110H300.292ZM297.268 110.126C296.548 110.126 295.918 110.006 295.378 109.766C294.838 109.514 294.418 109.172 294.118 108.74C293.83 108.296 293.686 107.798 293.686 107.246C293.686 106.706 293.812 106.22 294.064 105.788C294.328 105.356 294.754 105.014 295.342 104.762C295.93 104.51 296.71 104.384 297.682 104.384H300.472V105.878H297.844C297.076 105.878 296.56 106.004 296.296 106.256C296.032 106.496 295.9 106.796 295.9 107.156C295.9 107.564 296.062 107.888 296.386 108.128C296.71 108.368 297.16 108.488 297.736 108.488C298.288 108.488 298.78 108.362 299.212 108.11C299.656 107.858 299.974 107.486 300.166 106.994L300.544 108.344C300.328 108.908 299.938 109.346 299.374 109.658C298.822 109.97 298.12 110.126 297.268 110.126ZM312.094 110L308.62 105.392L310.456 104.258L314.74 110H312.094ZM305.2 110V100.388H307.45V110H305.2ZM306.784 106.148V104.276H310.042V106.148H306.784ZM310.672 105.464L308.566 105.212L312.094 100.388H314.506L310.672 105.464ZM320.385 110.126C319.377 110.126 318.477 109.916 317.685 109.496C316.905 109.064 316.293 108.476 315.849 107.732C315.405 106.988 315.183 106.142 315.183 105.194C315.183 104.234 315.405 103.388 315.849 102.656C316.293 101.912 316.905 101.33 317.685 100.91C318.477 100.49 319.377 100.28 320.385 100.28C321.321 100.28 322.143 100.472 322.851 100.856C323.571 101.228 324.117 101.78 324.489 102.512L322.761 103.52C322.473 103.064 322.119 102.728 321.699 102.512C321.291 102.296 320.847 102.188 320.367 102.188C319.815 102.188 319.317 102.308 318.873 102.548C318.429 102.788 318.081 103.136 317.829 103.592C317.577 104.036 317.451 104.57 317.451 105.194C317.451 105.818 317.577 106.358 317.829 106.814C318.081 107.258 318.429 107.6 318.873 107.84C319.317 108.08 319.815 108.2 320.367 108.2C320.847 108.2 321.291 108.092 321.699 107.876C322.119 107.66 322.473 107.324 322.761 106.868L324.489 107.876C324.117 108.596 323.571 109.154 322.851 109.55C322.143 109.934 321.321 110.126 320.385 110.126ZM330.811 110.126C329.743 110.126 328.807 109.916 328.003 109.496C327.211 109.064 326.593 108.476 326.149 107.732C325.717 106.988 325.501 106.142 325.501 105.194C325.501 104.234 325.711 103.388 326.131 102.656C326.563 101.912 327.151 101.33 327.895 100.91C328.651 100.49 329.509 100.28 330.469 100.28C331.405 100.28 332.239 100.484 332.971 100.892C333.703 101.3 334.279 101.876 334.699 102.62C335.119 103.364 335.329 104.24 335.329 105.248C335.329 105.344 335.323 105.452 335.311 105.572C335.311 105.692 335.305 105.806 335.293 105.914H327.283V104.42H334.105L333.223 104.888C333.235 104.336 333.121 103.85 332.881 103.43C332.641 103.01 332.311 102.68 331.891 102.44C331.483 102.2 331.009 102.08 330.469 102.08C329.917 102.08 329.431 102.2 329.011 102.44C328.603 102.68 328.279 103.016 328.039 103.448C327.811 103.868 327.697 104.366 327.697 104.942V105.302C327.697 105.878 327.829 106.388 328.093 106.832C328.357 107.276 328.729 107.618 329.209 107.858C329.689 108.098 330.241 108.218 330.865 108.218C331.405 108.218 331.891 108.134 332.323 107.966C332.755 107.798 333.139 107.534 333.475 107.174L334.681 108.56C334.249 109.064 333.703 109.454 333.043 109.73C332.395 109.994 331.651 110.126 330.811 110.126ZM336.263 109.982L336.371 108.092C336.455 108.104 336.533 108.116 336.605 108.128C336.677 108.14 336.743 108.146 336.803 108.146C337.175 108.146 337.463 108.032 337.667 107.804C337.871 107.576 338.021 107.27 338.117 106.886C338.225 106.49 338.297 106.052 338.333 105.572C338.381 105.08 338.417 104.588 338.441 104.096L338.603 100.388H346.379V110H344.129V101.684L344.651 102.296H340.079L340.565 101.666L340.439 104.204C340.403 105.056 340.331 105.848 340.223 106.58C340.127 107.3 339.971 107.93 339.755 108.47C339.551 109.01 339.263 109.43 338.891 109.73C338.531 110.03 338.069 110.18 337.505 110.18C337.325 110.18 337.127 110.162 336.911 110.126C336.707 110.09 336.491 110.042 336.263 109.982ZM353.891 110.126C352.823 110.126 351.887 109.916 351.083 109.496C350.291 109.064 349.673 108.476 349.229 107.732C348.797 106.988 348.581 106.142 348.581 105.194C348.581 104.234 348.791 103.388 349.211 102.656C349.643 101.912 350.231 101.33 350.975 100.91C351.731 100.49 352.589 100.28 353.549 100.28C354.485 100.28 355.319 100.484 356.051 100.892C356.783 101.3 357.359 101.876 357.779 102.62C358.199 103.364 358.409 104.24 358.409 105.248C358.409 105.344 358.403 105.452 358.391 105.572C358.391 105.692 358.385 105.806 358.373 105.914H350.363V104.42H357.185L356.303 104.888C356.315 104.336 356.201 103.85 355.961 103.43C355.721 103.01 355.391 102.68 354.971 102.44C354.563 102.2 354.089 102.08 353.549 102.08C352.997 102.08 352.511 102.2 352.091 102.44C351.683 102.68 351.359 103.016 351.119 103.448C350.891 103.868 350.777 104.366 350.777 104.942V105.302C350.777 105.878 350.909 106.388 351.173 106.832C351.437 107.276 351.809 107.618 352.289 107.858C352.769 108.098 353.321 108.218 353.945 108.218C354.485 108.218 354.971 108.134 355.403 107.966C355.835 107.798 356.219 107.534 356.555 107.174L357.761 108.56C357.329 109.064 356.783 109.454 356.123 109.73C355.475 109.994 354.731 110.126 353.891 110.126ZM366.198 110.126C365.418 110.126 364.704 109.946 364.056 109.586C363.42 109.226 362.91 108.686 362.526 107.966C362.154 107.234 361.968 106.31 361.968 105.194C361.968 104.066 362.148 103.142 362.508 102.422C362.88 101.702 363.384 101.168 364.02 100.82C364.656 100.46 365.382 100.28 366.198 100.28C367.146 100.28 367.98 100.484 368.7 100.892C369.432 101.3 370.008 101.87 370.428 102.602C370.86 103.334 371.076 104.198 371.076 105.194C371.076 106.19 370.86 107.06 370.428 107.804C370.008 108.536 369.432 109.106 368.7 109.514C367.98 109.922 367.146 110.126 366.198 110.126ZM360.87 113.492V100.388H363.012V102.656L362.94 105.212L363.12 107.768V113.492H360.87ZM365.946 108.2C366.486 108.2 366.966 108.08 367.386 107.84C367.818 107.6 368.16 107.252 368.412 106.796C368.664 106.34 368.79 105.806 368.79 105.194C368.79 104.57 368.664 104.036 368.412 103.592C368.16 103.136 367.818 102.788 367.386 102.548C366.966 102.308 366.486 102.188 365.946 102.188C365.406 102.188 364.92 102.308 364.488 102.548C364.056 102.788 363.714 103.136 363.462 103.592C363.21 104.036 363.084 104.57 363.084 105.194C363.084 105.806 363.21 106.34 363.462 106.796C363.714 107.252 364.056 107.6 364.488 107.84C364.92 108.08 365.406 108.2 365.946 108.2ZM379.025 110V108.056L378.899 107.642V104.24C378.899 103.58 378.701 103.07 378.305 102.71C377.909 102.338 377.309 102.152 376.505 102.152C375.965 102.152 375.431 102.236 374.903 102.404C374.387 102.572 373.949 102.806 373.589 103.106L372.707 101.468C373.223 101.072 373.835 100.778 374.543 100.586C375.263 100.382 376.007 100.28 376.775 100.28C378.167 100.28 379.241 100.616 379.997 101.288C380.765 101.948 381.149 102.974 381.149 104.366V110H379.025ZM376.001 110.126C375.281 110.126 374.651 110.006 374.111 109.766C373.571 109.514 373.151 109.172 372.851 108.74C372.563 108.296 372.419 107.798 372.419 107.246C372.419 106.706 372.545 106.22 372.797 105.788C373.061 105.356 373.487 105.014 374.075 104.762C374.663 104.51 375.443 104.384 376.415 104.384H379.205V105.878H376.577C375.809 105.878 375.293 106.004 375.029 106.256C374.765 106.496 374.633 106.796 374.633 107.156C374.633 107.564 374.795 107.888 375.119 108.128C375.443 108.368 375.893 108.488 376.469 108.488C377.021 108.488 377.513 108.362 377.945 108.11C378.389 107.858 378.707 107.486 378.899 106.994L379.277 108.344C379.061 108.908 378.671 109.346 378.107 109.658C377.555 109.97 376.853 110.126 376.001 110.126ZM383.933 110V100.388H386.183V108.092H390.773V100.388H393.023V110H383.933ZM392.375 112.142V109.946L392.897 110H390.773V108.092H394.481V112.142H392.375ZM396.484 110V100.388H398.734V106.724L404.044 100.388H406.096V110H403.846V103.664L398.554 110H396.484ZM413.406 110.126C412.422 110.126 411.546 109.916 410.778 109.496C410.01 109.064 409.404 108.476 408.96 107.732C408.516 106.988 408.294 106.142 408.294 105.194C408.294 104.234 408.516 103.388 408.96 102.656C409.404 101.912 410.01 101.33 410.778 100.91C411.546 100.49 412.422 100.28 413.406 100.28C414.402 100.28 415.284 100.49 416.052 100.91C416.832 101.33 417.438 101.906 417.87 102.638C418.314 103.37 418.536 104.222 418.536 105.194C418.536 106.142 418.314 106.988 417.87 107.732C417.438 108.476 416.832 109.064 416.052 109.496C415.284 109.916 414.402 110.126 413.406 110.126ZM413.406 108.2C413.958 108.2 414.45 108.08 414.882 107.84C415.314 107.6 415.65 107.252 415.89 106.796C416.142 106.34 416.268 105.806 416.268 105.194C416.268 104.57 416.142 104.036 415.89 103.592C415.65 103.136 415.314 102.788 414.882 102.548C414.45 102.308 413.964 102.188 413.424 102.188C412.872 102.188 412.38 102.308 411.948 102.548C411.528 102.788 411.192 103.136 410.94 103.592C410.688 104.036 410.562 104.57 410.562 105.194C410.562 105.806 410.688 106.34 410.94 106.796C411.192 107.252 411.528 107.6 411.948 107.84C412.38 108.08 412.866 108.2 413.406 108.2ZM420.759 110V100.388H423.009V104.294H427.851V100.388H430.101V110H427.851V106.202H423.009V110H420.759ZM433.116 110V100.388H435.366V104.294H440.208V100.388H442.458V110H440.208V106.202H435.366V110H433.116ZM449.758 110.126C448.774 110.126 447.898 109.916 447.13 109.496C446.362 109.064 445.756 108.476 445.312 107.732C444.868 106.988 444.646 106.142 444.646 105.194C444.646 104.234 444.868 103.388 445.312 102.656C445.756 101.912 446.362 101.33 447.13 100.91C447.898 100.49 448.774 100.28 449.758 100.28C450.754 100.28 451.636 100.49 452.404 100.91C453.184 101.33 453.79 101.906 454.222 102.638C454.666 103.37 454.888 104.222 454.888 105.194C454.888 106.142 454.666 106.988 454.222 107.732C453.79 108.476 453.184 109.064 452.404 109.496C451.636 109.916 450.754 110.126 449.758 110.126ZM449.758 108.2C450.31 108.2 450.802 108.08 451.234 107.84C451.666 107.6 452.002 107.252 452.242 106.796C452.494 106.34 452.62 105.806 452.62 105.194C452.62 104.57 452.494 104.036 452.242 103.592C452.002 103.136 451.666 102.788 451.234 102.548C450.802 102.308 450.316 102.188 449.776 102.188C449.224 102.188 448.732 102.308 448.3 102.548C447.88 102.788 447.544 103.136 447.292 103.592C447.04 104.036 446.914 104.57 446.914 105.194C446.914 105.806 447.04 106.34 447.292 106.796C447.544 107.252 447.88 107.6 448.3 107.84C448.732 108.08 449.218 108.2 449.758 108.2ZM457.111 110V100.388H459.361V106.724L464.671 100.388H466.723V110H464.473V103.664L459.181 110H457.111ZM461.773 99.254C460.813 99.254 460.075 99.032 459.559 98.588C459.043 98.132 458.779 97.472 458.767 96.608H460.261C460.273 97.04 460.405 97.382 460.657 97.634C460.921 97.886 461.287 98.012 461.755 98.012C462.211 98.012 462.571 97.886 462.835 97.634C463.111 97.382 463.255 97.04 463.267 96.608H464.797C464.785 97.472 464.515 98.132 463.987 98.588C463.471 99.032 462.733 99.254 461.773 99.254ZM311.573 138V128.388H320.789V138H318.557V129.774L319.079 130.296H313.301L313.823 129.774V138H311.573ZM329.153 138.126C328.373 138.126 327.659 137.946 327.011 137.586C326.375 137.226 325.865 136.686 325.481 135.966C325.109 135.234 324.923 134.31 324.923 133.194C324.923 132.066 325.103 131.142 325.463 130.422C325.835 129.702 326.339 129.168 326.975 128.82C327.611 128.46 328.337 128.28 329.153 128.28C330.101 128.28 330.935 128.484 331.655 128.892C332.387 129.3 332.963 129.87 333.383 130.602C333.815 131.334 334.031 132.198 334.031 133.194C334.031 134.19 333.815 135.06 333.383 135.804C332.963 136.536 332.387 137.106 331.655 137.514C330.935 137.922 330.101 138.126 329.153 138.126ZM323.825 141.492V128.388H325.967V130.656L325.895 133.212L326.075 135.768V141.492H323.825ZM328.901 136.2C329.441 136.2 329.921 136.08 330.341 135.84C330.773 135.6 331.115 135.252 331.367 134.796C331.619 134.34 331.745 133.806 331.745 133.194C331.745 132.57 331.619 132.036 331.367 131.592C331.115 131.136 330.773 130.788 330.341 130.548C329.921 130.308 329.441 130.188 328.901 130.188C328.361 130.188 327.875 130.308 327.443 130.548C327.011 130.788 326.669 131.136 326.417 131.592C326.165 132.036 326.039 132.57 326.039 133.194C326.039 133.806 326.165 134.34 326.417 134.796C326.669 135.252 327.011 135.6 327.443 135.84C327.875 136.08 328.361 136.2 328.901 136.2ZM340.554 138.126C339.57 138.126 338.694 137.916 337.926 137.496C337.158 137.064 336.552 136.476 336.108 135.732C335.664 134.988 335.442 134.142 335.442 133.194C335.442 132.234 335.664 131.388 336.108 130.656C336.552 129.912 337.158 129.33 337.926 128.91C338.694 128.49 339.57 128.28 340.554 128.28C341.55 128.28 342.432 128.49 343.2 128.91C343.98 129.33 344.586 129.906 345.018 130.638C345.462 131.37 345.684 132.222 345.684 133.194C345.684 134.142 345.462 134.988 345.018 135.732C344.586 136.476 343.98 137.064 343.2 137.496C342.432 137.916 341.55 138.126 340.554 138.126ZM340.554 136.2C341.106 136.2 341.598 136.08 342.03 135.84C342.462 135.6 342.798 135.252 343.038 134.796C343.29 134.34 343.416 133.806 343.416 133.194C343.416 132.57 343.29 132.036 343.038 131.592C342.798 131.136 342.462 130.788 342.03 130.548C341.598 130.308 341.112 130.188 340.572 130.188C340.02 130.188 339.528 130.308 339.096 130.548C338.676 130.788 338.34 131.136 338.088 131.592C337.836 132.036 337.71 132.57 337.71 133.194C337.71 133.806 337.836 134.34 338.088 134.796C338.34 135.252 338.676 135.6 339.096 135.84C339.528 136.08 340.014 136.2 340.554 136.2ZM347.907 138V128.388H355.287V130.296H349.635L350.157 129.792V138H347.907ZM362.252 138.126C361.472 138.126 360.758 137.946 360.11 137.586C359.474 137.226 358.964 136.686 358.58 135.966C358.208 135.234 358.022 134.31 358.022 133.194C358.022 132.066 358.202 131.142 358.562 130.422C358.934 129.702 359.438 129.168 360.074 128.82C360.71 128.46 361.436 128.28 362.252 128.28C363.2 128.28 364.034 128.484 364.754 128.892C365.486 129.3 366.062 129.87 366.482 130.602C366.914 131.334 367.13 132.198 367.13 133.194C367.13 134.19 366.914 135.06 366.482 135.804C366.062 136.536 365.486 137.106 364.754 137.514C364.034 137.922 363.2 138.126 362.252 138.126ZM356.924 141.492V128.388H359.066V130.656L358.994 133.212L359.174 135.768V141.492H356.924ZM362 136.2C362.54 136.2 363.02 136.08 363.44 135.84C363.872 135.6 364.214 135.252 364.466 134.796C364.718 134.34 364.844 133.806 364.844 133.194C364.844 132.57 364.718 132.036 364.466 131.592C364.214 131.136 363.872 130.788 363.44 130.548C363.02 130.308 362.54 130.188 362 130.188C361.46 130.188 360.974 130.308 360.542 130.548C360.11 130.788 359.768 131.136 359.516 131.592C359.264 132.036 359.138 132.57 359.138 133.194C359.138 133.806 359.264 134.34 359.516 134.796C359.768 135.252 360.11 135.6 360.542 135.84C360.974 136.08 361.46 136.2 362 136.2ZM375.078 138V136.056L374.952 135.642V132.24C374.952 131.58 374.754 131.07 374.358 130.71C373.962 130.338 373.362 130.152 372.558 130.152C372.018 130.152 371.484 130.236 370.956 130.404C370.44 130.572 370.002 130.806 369.642 131.106L368.76 129.468C369.276 129.072 369.888 128.778 370.596 128.586C371.316 128.382 372.06 128.28 372.828 128.28C374.22 128.28 375.294 128.616 376.05 129.288C376.818 129.948 377.202 130.974 377.202 132.366V138H375.078ZM372.054 138.126C371.334 138.126 370.704 138.006 370.164 137.766C369.624 137.514 369.204 137.172 368.904 136.74C368.616 136.296 368.472 135.798 368.472 135.246C368.472 134.706 368.598 134.22 368.85 133.788C369.114 133.356 369.54 133.014 370.128 132.762C370.716 132.51 371.496 132.384 372.468 132.384H375.258V133.878H372.63C371.862 133.878 371.346 134.004 371.082 134.256C370.818 134.496 370.686 134.796 370.686 135.156C370.686 135.564 370.848 135.888 371.172 136.128C371.496 136.368 371.946 136.488 372.522 136.488C373.074 136.488 373.566 136.362 373.998 136.11C374.442 135.858 374.76 135.486 374.952 134.994L375.33 136.344C375.114 136.908 374.724 137.346 374.16 137.658C373.608 137.97 372.906 138.126 372.054 138.126ZM379.987 138V128.388H382.345L386.215 135.21H385.279L389.347 128.388H391.453L391.471 138H389.437V130.8L389.797 131.034L386.197 136.992H385.225L381.607 130.872L382.039 130.764V138H379.987ZM394.489 138V128.388H396.847L400.717 135.21H399.781L403.849 128.388H405.955L405.973 138H403.939V130.8L404.299 131.034L400.699 136.992H399.727L396.109 130.872L396.541 130.764V138H394.489ZM413.473 138.126C412.405 138.126 411.469 137.916 410.665 137.496C409.873 137.064 409.255 136.476 408.811 135.732C408.379 134.988 408.163 134.142 408.163 133.194C408.163 132.234 408.373 131.388 408.793 130.656C409.225 129.912 409.813 129.33 410.557 128.91C411.313 128.49 412.171 128.28 413.131 128.28C414.067 128.28 414.901 128.484 415.633 128.892C416.365 129.3 416.941 129.876 417.361 130.62C417.781 131.364 417.991 132.24 417.991 133.248C417.991 133.344 417.985 133.452 417.973 133.572C417.973 133.692 417.967 133.806 417.955 133.914H409.945V132.42H416.767L415.885 132.888C415.897 132.336 415.783 131.85 415.543 131.43C415.303 131.01 414.973 130.68 414.553 130.44C414.145 130.2 413.671 130.08 413.131 130.08C412.579 130.08 412.093 130.2 411.673 130.44C411.265 130.68 410.941 131.016 410.701 131.448C410.473 131.868 410.359 132.366 410.359 132.942V133.302C410.359 133.878 410.491 134.388 410.755 134.832C411.019 135.276 411.391 135.618 411.871 135.858C412.351 136.098 412.903 136.218 413.527 136.218C414.067 136.218 414.553 136.134 414.985 135.966C415.417 135.798 415.801 135.534 416.137 135.174L417.343 136.56C416.911 137.064 416.365 137.454 415.705 137.73C415.057 137.994 414.313 138.126 413.473 138.126Z" fill="white"/>
</svg>
