<svg width="318" height="200" viewBox="0 0 318 200" fill="none" xmlns="http://www.w3.org/2000/svg">
<rect width="318" height="200" rx="5" fill="#0F0F0F"/>
<circle cx="159.5" cy="137.5" r="31.5" fill="#4C8EF0"/>
<path d="M171.892 135.768C173.225 136.537 173.225 138.462 171.892 139.232L154.804 149.098C153.471 149.867 151.804 148.905 151.804 147.366L151.804 127.634C151.804 126.094 153.471 125.132 154.804 125.902L171.892 135.768Z" fill="white"/>
<path d="M74.0571 51.16C73.1824 51.16 72.3771 51.016 71.6411 50.728C70.9051 50.44 70.2651 50.04 69.7211 49.528C69.1771 49.0053 68.7557 48.3973 68.4571 47.704C68.1584 47 68.0091 46.232 68.0091 45.4C68.0091 44.568 68.1584 43.8053 68.4571 43.112C68.7557 42.408 69.1771 41.8 69.7211 41.288C70.2651 40.7653 70.9051 40.36 71.6411 40.072C72.3771 39.784 73.1771 39.64 74.0411 39.64C74.9157 39.64 75.7157 39.784 76.4411 40.072C77.1771 40.36 77.8171 40.7653 78.3611 41.288C78.9051 41.8 79.3264 42.408 79.6251 43.112C79.9237 43.8053 80.0731 44.568 80.0731 45.4C80.0731 46.232 79.9237 47 79.6251 47.704C79.3264 48.408 78.9051 49.016 78.3611 49.528C77.8171 50.04 77.1771 50.44 76.4411 50.728C75.7157 51.016 74.9211 51.16 74.0571 51.16ZM74.0411 49.336C74.6064 49.336 75.1291 49.24 75.6091 49.048C76.0891 48.856 76.5051 48.584 76.8571 48.232C77.2091 47.8693 77.4811 47.4533 77.6731 46.984C77.8757 46.504 77.9771 45.976 77.9771 45.4C77.9771 44.824 77.8757 44.3013 77.6731 43.832C77.4811 43.352 77.2091 42.936 76.8571 42.584C76.5051 42.2213 76.0891 41.944 75.6091 41.752C75.1291 41.56 74.6064 41.464 74.0411 41.464C73.4757 41.464 72.9531 41.56 72.4731 41.752C72.0037 41.944 71.5877 42.2213 71.2251 42.584C70.8731 42.936 70.5957 43.352 70.3931 43.832C70.2011 44.3013 70.1051 44.824 70.1051 45.4C70.1051 45.9653 70.2011 46.488 70.3931 46.968C70.5957 47.448 70.8731 47.8693 71.2251 48.232C71.5771 48.584 71.9931 48.856 72.4731 49.048C72.9531 49.24 73.4757 49.336 74.0411 49.336ZM86.2287 51.16C85.5247 51.16 84.8954 51.0533 84.3407 50.84C83.786 50.6267 83.306 50.3013 82.9007 49.864C82.506 49.416 82.202 48.8507 81.9887 48.168C81.7754 47.4853 81.6687 46.6747 81.6687 45.736C81.6687 45.0533 81.7274 44.4293 81.8447 43.864C81.962 43.2987 82.138 42.792 82.3727 42.344C82.6074 41.8853 82.9007 41.48 83.2527 41.128C83.6154 40.776 84.0367 40.4827 84.5167 40.248C84.9967 40.0133 85.5407 39.832 86.1487 39.704L90.1167 38.856L90.4047 40.648L86.8047 41.384C86.602 41.4267 86.3567 41.4907 86.0687 41.576C85.7914 41.6507 85.5034 41.768 85.2047 41.928C84.9167 42.0773 84.6447 42.296 84.3887 42.584C84.1434 42.8613 83.9407 43.224 83.7807 43.672C83.6314 44.1093 83.5567 44.6587 83.5567 45.32C83.5567 45.5227 83.562 45.6773 83.5727 45.784C83.594 45.88 83.61 45.9867 83.6207 46.104C83.642 46.2107 83.6527 46.3707 83.6527 46.584L82.9007 45.8C83.114 45.256 83.4074 44.792 83.7807 44.408C84.1647 44.0133 84.6074 43.7147 85.1087 43.512C85.6207 43.2987 86.1754 43.192 86.7727 43.192C87.5727 43.192 88.282 43.3573 88.9007 43.688C89.5194 44.0187 90.0047 44.4827 90.3567 45.08C90.7087 45.6773 90.8847 46.3547 90.8847 47.112C90.8847 47.9013 90.6927 48.6 90.3087 49.208C89.9247 49.816 89.3807 50.296 88.6767 50.648C87.9834 50.9893 87.1674 51.16 86.2287 51.16ZM86.3887 49.544C86.8687 49.544 87.29 49.4427 87.6527 49.24C88.026 49.0267 88.314 48.7387 88.5167 48.376C88.73 48.0133 88.8367 47.608 88.8367 47.16C88.8367 46.712 88.73 46.3227 88.5167 45.992C88.314 45.6507 88.026 45.3787 87.6527 45.176C87.29 44.9733 86.858 44.872 86.3567 44.872C85.8767 44.872 85.4447 44.968 85.0607 45.16C84.6874 45.352 84.394 45.6187 84.1807 45.96C83.978 46.2907 83.8767 46.6747 83.8767 47.112C83.8767 47.56 83.9834 47.9707 84.1967 48.344C84.41 48.7173 84.7034 49.0107 85.0767 49.224C85.4607 49.4373 85.898 49.544 86.3887 49.544ZM102.426 51V49.272L102.314 48.904V45.88C102.314 45.2933 102.138 44.84 101.786 44.52C101.434 44.1893 100.901 44.024 100.186 44.024C99.7064 44.024 99.2318 44.0987 98.7624 44.248C98.3038 44.3973 97.9144 44.6053 97.5944 44.872L96.8104 43.416C97.2691 43.064 97.8131 42.8027 98.4424 42.632C99.0824 42.4507 99.7438 42.36 100.426 42.36C101.664 42.36 102.618 42.6587 103.29 43.256C103.973 43.8427 104.314 44.7547 104.314 45.992V51H102.426ZM99.7384 51.112C99.0984 51.112 98.5384 51.0053 98.0584 50.792C97.5784 50.568 97.2051 50.264 96.9384 49.88C96.6824 49.4853 96.5544 49.0427 96.5544 48.552C96.5544 48.072 96.6664 47.64 96.8904 47.256C97.1251 46.872 97.5038 46.568 98.0264 46.344C98.5491 46.12 99.2424 46.008 100.106 46.008H102.586V47.336H100.25C99.5678 47.336 99.1091 47.448 98.8744 47.672C98.6398 47.8853 98.5224 48.152 98.5224 48.472C98.5224 48.8347 98.6664 49.1227 98.9544 49.336C99.2424 49.5493 99.6424 49.656 100.154 49.656C100.645 49.656 101.082 49.544 101.466 49.32C101.861 49.096 102.144 48.7653 102.314 48.328L102.65 49.528C102.458 50.0293 102.112 50.4187 101.61 50.696C101.12 50.9733 100.496 51.112 99.7384 51.112ZM112.917 51L109.829 46.904L111.461 45.896L115.269 51H112.917ZM106.789 51V42.456H108.789V51H106.789ZM108.197 47.576V45.912H111.093V47.576H108.197ZM111.653 46.968L109.781 46.744L112.917 42.456H115.061L111.653 46.968ZM120.287 51.112C119.391 51.112 118.591 50.9253 117.887 50.552C117.193 50.168 116.649 49.6453 116.255 48.984C115.86 48.3227 115.663 47.5707 115.663 46.728C115.663 45.8747 115.86 45.1227 116.255 44.472C116.649 43.8107 117.193 43.2933 117.887 42.92C118.591 42.5467 119.391 42.36 120.287 42.36C121.119 42.36 121.849 42.5307 122.479 42.872C123.119 43.2027 123.604 43.6933 123.935 44.344L122.399 45.24C122.143 44.8347 121.828 44.536 121.455 44.344C121.092 44.152 120.697 44.056 120.271 44.056C119.78 44.056 119.337 44.1627 118.943 44.376C118.548 44.5893 118.239 44.8987 118.015 45.304C117.791 45.6987 117.679 46.1733 117.679 46.728C117.679 47.2827 117.791 47.7627 118.015 48.168C118.239 48.5627 118.548 48.8667 118.943 49.08C119.337 49.2933 119.78 49.4 120.271 49.4C120.697 49.4 121.092 49.304 121.455 49.112C121.828 48.92 122.143 48.6213 122.399 48.216L123.935 49.112C123.604 49.752 123.119 50.248 122.479 50.6C121.849 50.9413 121.119 51.112 120.287 51.112ZM129.555 51.112C128.605 51.112 127.773 50.9253 127.059 50.552C126.355 50.168 125.805 49.6453 125.411 48.984C125.027 48.3227 124.835 47.5707 124.835 46.728C124.835 45.8747 125.021 45.1227 125.395 44.472C125.779 43.8107 126.301 43.2933 126.963 42.92C127.635 42.5467 128.397 42.36 129.251 42.36C130.083 42.36 130.824 42.5413 131.475 42.904C132.125 43.2667 132.637 43.7787 133.011 44.44C133.384 45.1013 133.571 45.88 133.571 46.776C133.571 46.8613 133.565 46.9573 133.555 47.064C133.555 47.1707 133.549 47.272 133.539 47.368H126.419V46.04H132.483L131.699 46.456C131.709 45.9653 131.608 45.5333 131.395 45.16C131.181 44.7867 130.888 44.4933 130.515 44.28C130.152 44.0667 129.731 43.96 129.251 43.96C128.76 43.96 128.328 44.0667 127.955 44.28C127.592 44.4933 127.304 44.792 127.091 45.176C126.888 45.5493 126.787 45.992 126.787 46.504V46.824C126.787 47.336 126.904 47.7893 127.139 48.184C127.373 48.5787 127.704 48.8827 128.131 49.096C128.557 49.3093 129.048 49.416 129.603 49.416C130.083 49.416 130.515 49.3413 130.899 49.192C131.283 49.0427 131.624 48.808 131.923 48.488L132.995 49.72C132.611 50.168 132.125 50.5147 131.539 50.76C130.963 50.9947 130.301 51.112 129.555 51.112ZM134.401 50.984L134.497 49.304C134.571 49.3147 134.641 49.3253 134.705 49.336C134.769 49.3467 134.827 49.352 134.881 49.352C135.211 49.352 135.467 49.2507 135.649 49.048C135.83 48.8453 135.963 48.5733 136.049 48.232C136.145 47.88 136.209 47.4907 136.241 47.064C136.283 46.6267 136.315 46.1893 136.337 45.752L136.481 42.456H143.393V51H141.393V43.608L141.857 44.152H137.793L138.225 43.592L138.113 45.848C138.081 46.6053 138.017 47.3093 137.921 47.96C137.835 48.6 137.697 49.16 137.505 49.64C137.323 50.12 137.067 50.4933 136.737 50.76C136.417 51.0267 136.006 51.16 135.505 51.16C135.345 51.16 135.169 51.144 134.977 51.112C134.795 51.08 134.603 51.0373 134.401 50.984ZM150.07 51.112C149.121 51.112 148.289 50.9253 147.574 50.552C146.87 50.168 146.321 49.6453 145.926 48.984C145.542 48.3227 145.35 47.5707 145.35 46.728C145.35 45.8747 145.537 45.1227 145.91 44.472C146.294 43.8107 146.817 43.2933 147.478 42.92C148.15 42.5467 148.913 42.36 149.766 42.36C150.598 42.36 151.34 42.5413 151.99 42.904C152.641 43.2667 153.153 43.7787 153.526 44.44C153.9 45.1013 154.086 45.88 154.086 46.776C154.086 46.8613 154.081 46.9573 154.07 47.064C154.07 47.1707 154.065 47.272 154.054 47.368H146.934V46.04H152.998L152.214 46.456C152.225 45.9653 152.124 45.5333 151.91 45.16C151.697 44.7867 151.404 44.4933 151.03 44.28C150.668 44.0667 150.246 43.96 149.766 43.96C149.276 43.96 148.844 44.0667 148.47 44.28C148.108 44.4933 147.82 44.792 147.606 45.176C147.404 45.5493 147.302 45.992 147.302 46.504V46.824C147.302 47.336 147.42 47.7893 147.654 48.184C147.889 48.5787 148.22 48.8827 148.646 49.096C149.073 49.3093 149.564 49.416 150.118 49.416C150.598 49.416 151.03 49.3413 151.414 49.192C151.798 49.0427 152.14 48.808 152.438 48.488L153.51 49.72C153.126 50.168 152.641 50.5147 152.054 50.76C151.478 50.9947 150.817 51.112 150.07 51.112ZM161.01 51.112C160.316 51.112 159.682 50.952 159.106 50.632C158.54 50.312 158.087 49.832 157.746 49.192C157.415 48.5413 157.25 47.72 157.25 46.728C157.25 45.7253 157.41 44.904 157.73 44.264C158.06 43.624 158.508 43.1493 159.074 42.84C159.639 42.52 160.284 42.36 161.01 42.36C161.852 42.36 162.594 42.5413 163.234 42.904C163.884 43.2667 164.396 43.7733 164.77 44.424C165.154 45.0747 165.346 45.8427 165.346 46.728C165.346 47.6133 165.154 48.3867 164.77 49.048C164.396 49.6987 163.884 50.2053 163.234 50.568C162.594 50.9307 161.852 51.112 161.01 51.112ZM156.274 54.104V42.456H158.178V44.472L158.114 46.744L158.274 49.016V54.104H156.274ZM160.786 49.4C161.266 49.4 161.692 49.2933 162.066 49.08C162.45 48.8667 162.754 48.5573 162.978 48.152C163.202 47.7467 163.314 47.272 163.314 46.728C163.314 46.1733 163.202 45.6987 162.978 45.304C162.754 44.8987 162.45 44.5893 162.066 44.376C161.692 44.1627 161.266 44.056 160.786 44.056C160.306 44.056 159.874 44.1627 159.49 44.376C159.106 44.5893 158.802 44.8987 158.578 45.304C158.354 45.6987 158.242 46.1733 158.242 46.728C158.242 47.272 158.354 47.7467 158.578 48.152C158.802 48.5573 159.106 48.8667 159.49 49.08C159.874 49.2933 160.306 49.4 160.786 49.4ZM172.411 51V49.272L172.299 48.904V45.88C172.299 45.2933 172.123 44.84 171.771 44.52C171.419 44.1893 170.885 44.024 170.171 44.024C169.691 44.024 169.216 44.0987 168.747 44.248C168.288 44.3973 167.899 44.6053 167.579 44.872L166.795 43.416C167.253 43.064 167.797 42.8027 168.427 42.632C169.067 42.4507 169.728 42.36 170.411 42.36C171.648 42.36 172.603 42.6587 173.275 43.256C173.957 43.8427 174.299 44.7547 174.299 45.992V51H172.411ZM169.723 51.112C169.083 51.112 168.523 51.0053 168.043 50.792C167.563 50.568 167.189 50.264 166.923 49.88C166.667 49.4853 166.539 49.0427 166.539 48.552C166.539 48.072 166.651 47.64 166.875 47.256C167.109 46.872 167.488 46.568 168.011 46.344C168.533 46.12 169.227 46.008 170.091 46.008H172.571V47.336H170.235C169.552 47.336 169.093 47.448 168.859 47.672C168.624 47.8853 168.507 48.152 168.507 48.472C168.507 48.8347 168.651 49.1227 168.939 49.336C169.227 49.5493 169.627 49.656 170.139 49.656C170.629 49.656 171.067 49.544 171.451 49.32C171.845 49.096 172.128 48.7653 172.299 48.328L172.635 49.528C172.443 50.0293 172.096 50.4187 171.595 50.696C171.104 50.9733 170.48 51.112 169.723 51.112ZM176.774 51V42.456H178.774V49.304H182.854V42.456H184.854V51H176.774ZM184.278 52.904V50.952L184.742 51H182.854V49.304H186.15V52.904H184.278ZM187.93 51V42.456H189.93V48.088L194.65 42.456H196.474V51H194.474V45.368L189.77 51H187.93ZM202.972 51.112C202.098 51.112 201.319 50.9253 200.636 50.552C199.954 50.168 199.415 49.6453 199.02 48.984C198.626 48.3227 198.428 47.5707 198.428 46.728C198.428 45.8747 198.626 45.1227 199.02 44.472C199.415 43.8107 199.954 43.2933 200.636 42.92C201.319 42.5467 202.098 42.36 202.972 42.36C203.858 42.36 204.642 42.5467 205.324 42.92C206.018 43.2933 206.556 43.8053 206.94 44.456C207.335 45.1067 207.532 45.864 207.532 46.728C207.532 47.5707 207.335 48.3227 206.94 48.984C206.556 49.6453 206.018 50.168 205.324 50.552C204.642 50.9253 203.858 51.112 202.972 51.112ZM202.972 49.4C203.463 49.4 203.9 49.2933 204.284 49.08C204.668 48.8667 204.967 48.5573 205.18 48.152C205.404 47.7467 205.516 47.272 205.516 46.728C205.516 46.1733 205.404 45.6987 205.18 45.304C204.967 44.8987 204.668 44.5893 204.284 44.376C203.9 44.1627 203.468 44.056 202.988 44.056C202.498 44.056 202.06 44.1627 201.676 44.376C201.303 44.5893 201.004 44.8987 200.78 45.304C200.556 45.6987 200.444 46.1733 200.444 46.728C200.444 47.272 200.556 47.7467 200.78 48.152C201.004 48.5573 201.303 48.8667 201.676 49.08C202.06 49.2933 202.492 49.4 202.972 49.4ZM209.508 51V42.456H211.508V45.928H215.812V42.456H217.812V51H215.812V47.624H211.508V51H209.508ZM220.492 51V42.456H222.492V45.928H226.796V42.456H228.796V51H226.796V47.624H222.492V51H220.492ZM235.285 51.112C234.41 51.112 233.631 50.9253 232.949 50.552C232.266 50.168 231.727 49.6453 231.333 48.984C230.938 48.3227 230.741 47.5707 230.741 46.728C230.741 45.8747 230.938 45.1227 231.333 44.472C231.727 43.8107 232.266 43.2933 232.949 42.92C233.631 42.5467 234.41 42.36 235.285 42.36C236.17 42.36 236.954 42.5467 237.637 42.92C238.33 43.2933 238.869 43.8053 239.253 44.456C239.647 45.1067 239.845 45.864 239.845 46.728C239.845 47.5707 239.647 48.3227 239.253 48.984C238.869 49.6453 238.33 50.168 237.637 50.552C236.954 50.9253 236.17 51.112 235.285 51.112ZM235.285 49.4C235.775 49.4 236.213 49.2933 236.597 49.08C236.981 48.8667 237.279 48.5573 237.493 48.152C237.717 47.7467 237.829 47.272 237.829 46.728C237.829 46.1733 237.717 45.6987 237.493 45.304C237.279 44.8987 236.981 44.5893 236.597 44.376C236.213 44.1627 235.781 44.056 235.301 44.056C234.81 44.056 234.373 44.1627 233.989 44.376C233.615 44.5893 233.317 44.8987 233.093 45.304C232.869 45.6987 232.757 46.1733 232.757 46.728C232.757 47.272 232.869 47.7467 233.093 48.152C233.317 48.5573 233.615 48.8667 233.989 49.08C234.373 49.2933 234.805 49.4 235.285 49.4ZM241.821 51V42.456H243.821V48.088L248.541 42.456H250.365V51H248.365V45.368L243.661 51H241.821ZM245.965 41.448C245.111 41.448 244.455 41.2507 243.997 40.856C243.538 40.4507 243.303 39.864 243.293 39.096H244.621C244.631 39.48 244.749 39.784 244.973 40.008C245.207 40.232 245.533 40.344 245.949 40.344C246.354 40.344 246.674 40.232 246.909 40.008C247.154 39.784 247.282 39.48 247.293 39.096H248.653C248.642 39.864 248.402 40.4507 247.933 40.856C247.474 41.2507 246.818 41.448 245.965 41.448ZM112.453 79V70.456H120.645V79H118.661V71.688L119.125 72.152H113.989L114.453 71.688V79H112.453ZM128.08 79.112C127.387 79.112 126.752 78.952 126.176 78.632C125.611 78.312 125.157 77.832 124.816 77.192C124.485 76.5413 124.32 75.72 124.32 74.728C124.32 73.7253 124.48 72.904 124.8 72.264C125.131 71.624 125.579 71.1493 126.144 70.84C126.709 70.52 127.355 70.36 128.08 70.36C128.923 70.36 129.664 70.5413 130.304 70.904C130.955 71.2667 131.467 71.7733 131.84 72.424C132.224 73.0747 132.416 73.8427 132.416 74.728C132.416 75.6133 132.224 76.3867 131.84 77.048C131.467 77.6987 130.955 78.2053 130.304 78.568C129.664 78.9307 128.923 79.112 128.08 79.112ZM123.344 82.104V70.456H125.248V72.472L125.184 74.744L125.344 77.016V82.104H123.344ZM127.856 77.4C128.336 77.4 128.763 77.2933 129.136 77.08C129.52 76.8667 129.824 76.5573 130.048 76.152C130.272 75.7467 130.384 75.272 130.384 74.728C130.384 74.1733 130.272 73.6987 130.048 73.304C129.824 72.8987 129.52 72.5893 129.136 72.376C128.763 72.1627 128.336 72.056 127.856 72.056C127.376 72.056 126.944 72.1627 126.56 72.376C126.176 72.5893 125.872 72.8987 125.648 73.304C125.424 73.6987 125.312 74.1733 125.312 74.728C125.312 75.272 125.424 75.7467 125.648 76.152C125.872 76.5573 126.176 76.8667 126.56 77.08C126.944 77.2933 127.376 77.4 127.856 77.4ZM138.215 79.112C137.34 79.112 136.561 78.9253 135.879 78.552C135.196 78.168 134.657 77.6453 134.263 76.984C133.868 76.3227 133.671 75.5707 133.671 74.728C133.671 73.8747 133.868 73.1227 134.263 72.472C134.657 71.8107 135.196 71.2933 135.879 70.92C136.561 70.5467 137.34 70.36 138.215 70.36C139.1 70.36 139.884 70.5467 140.567 70.92C141.26 71.2933 141.799 71.8053 142.183 72.456C142.577 73.1067 142.775 73.864 142.775 74.728C142.775 75.5707 142.577 76.3227 142.183 76.984C141.799 77.6453 141.26 78.168 140.567 78.552C139.884 78.9253 139.1 79.112 138.215 79.112ZM138.215 77.4C138.705 77.4 139.143 77.2933 139.527 77.08C139.911 76.8667 140.209 76.5573 140.423 76.152C140.647 75.7467 140.759 75.272 140.759 74.728C140.759 74.1733 140.647 73.6987 140.423 73.304C140.209 72.8987 139.911 72.5893 139.527 72.376C139.143 72.1627 138.711 72.056 138.231 72.056C137.74 72.056 137.303 72.1627 136.919 72.376C136.545 72.5893 136.247 72.8987 136.023 73.304C135.799 73.6987 135.687 74.1733 135.687 74.728C135.687 75.272 135.799 75.7467 136.023 76.152C136.247 76.5573 136.545 76.8667 136.919 77.08C137.303 77.2933 137.735 77.4 138.215 77.4ZM144.75 79V70.456H151.31V72.152H146.286L146.75 71.704V79H144.75ZM157.502 79.112C156.809 79.112 156.174 78.952 155.598 78.632C155.033 78.312 154.579 77.832 154.238 77.192C153.907 76.5413 153.742 75.72 153.742 74.728C153.742 73.7253 153.902 72.904 154.222 72.264C154.553 71.624 155.001 71.1493 155.566 70.84C156.131 70.52 156.777 70.36 157.502 70.36C158.345 70.36 159.086 70.5413 159.726 70.904C160.377 71.2667 160.889 71.7733 161.262 72.424C161.646 73.0747 161.838 73.8427 161.838 74.728C161.838 75.6133 161.646 76.3867 161.262 77.048C160.889 77.6987 160.377 78.2053 159.726 78.568C159.086 78.9307 158.345 79.112 157.502 79.112ZM152.766 82.104V70.456H154.67V72.472L154.606 74.744L154.766 77.016V82.104H152.766ZM157.278 77.4C157.758 77.4 158.185 77.2933 158.558 77.08C158.942 76.8667 159.246 76.5573 159.47 76.152C159.694 75.7467 159.806 75.272 159.806 74.728C159.806 74.1733 159.694 73.6987 159.47 73.304C159.246 72.8987 158.942 72.5893 158.558 72.376C158.185 72.1627 157.758 72.056 157.278 72.056C156.798 72.056 156.366 72.1627 155.982 72.376C155.598 72.5893 155.294 72.8987 155.07 73.304C154.846 73.6987 154.734 74.1733 154.734 74.728C154.734 75.272 154.846 75.7467 155.07 76.152C155.294 76.5573 155.598 76.8667 155.982 77.08C156.366 77.2933 156.798 77.4 157.278 77.4ZM168.903 79V77.272L168.791 76.904V73.88C168.791 73.2933 168.615 72.84 168.263 72.52C167.911 72.1893 167.378 72.024 166.663 72.024C166.183 72.024 165.708 72.0987 165.239 72.248C164.78 72.3973 164.391 72.6053 164.071 72.872L163.287 71.416C163.746 71.064 164.29 70.8027 164.919 70.632C165.559 70.4507 166.22 70.36 166.903 70.36C168.14 70.36 169.095 70.6587 169.767 71.256C170.45 71.8427 170.791 72.7547 170.791 73.992V79H168.903ZM166.215 79.112C165.575 79.112 165.015 79.0053 164.535 78.792C164.055 78.568 163.682 78.264 163.415 77.88C163.159 77.4853 163.031 77.0427 163.031 76.552C163.031 76.072 163.143 75.64 163.367 75.256C163.602 74.872 163.98 74.568 164.503 74.344C165.026 74.12 165.719 74.008 166.583 74.008H169.063V75.336H166.727C166.044 75.336 165.586 75.448 165.351 75.672C165.116 75.8853 164.999 76.152 164.999 76.472C164.999 76.8347 165.143 77.1227 165.431 77.336C165.719 77.5493 166.119 77.656 166.631 77.656C167.122 77.656 167.559 77.544 167.943 77.32C168.338 77.096 168.62 76.7653 168.791 76.328L169.127 77.528C168.935 78.0293 168.588 78.4187 168.087 78.696C167.596 78.9733 166.972 79.112 166.215 79.112ZM173.266 79V70.456H175.362L178.802 76.52H177.97L181.586 70.456H183.458L183.474 79H181.666V72.6L181.986 72.808L178.786 78.104H177.922L174.706 72.664L175.09 72.568V79H173.266ZM186.157 79V70.456H188.253L191.693 76.52H190.861L194.477 70.456H196.349L196.365 79H194.557V72.6L194.877 72.808L191.677 78.104H190.813L187.597 72.664L187.981 72.568V79H186.157ZM203.031 79.112C202.082 79.112 201.25 78.9253 200.535 78.552C199.831 78.168 199.282 77.6453 198.887 76.984C198.503 76.3227 198.311 75.5707 198.311 74.728C198.311 73.8747 198.498 73.1227 198.871 72.472C199.255 71.8107 199.778 71.2933 200.439 70.92C201.111 70.5467 201.874 70.36 202.727 70.36C203.559 70.36 204.3 70.5413 204.951 70.904C205.602 71.2667 206.114 71.7787 206.487 72.44C206.86 73.1013 207.047 73.88 207.047 74.776C207.047 74.8613 207.042 74.9573 207.031 75.064C207.031 75.1707 207.026 75.272 207.015 75.368H199.895V74.04H205.959L205.175 74.456C205.186 73.9653 205.084 73.5333 204.871 73.16C204.658 72.7867 204.364 72.4933 203.991 72.28C203.628 72.0667 203.207 71.96 202.727 71.96C202.236 71.96 201.804 72.0667 201.431 72.28C201.068 72.4933 200.78 72.792 200.567 73.176C200.364 73.5493 200.263 73.992 200.263 74.504V74.824C200.263 75.336 200.38 75.7893 200.615 76.184C200.85 76.5787 201.18 76.8827 201.607 77.096C202.034 77.3093 202.524 77.416 203.079 77.416C203.559 77.416 203.991 77.3413 204.375 77.192C204.759 77.0427 205.1 76.808 205.399 76.488L206.471 77.72C206.087 78.168 205.602 78.5147 205.015 78.76C204.439 78.9947 203.778 79.112 203.031 79.112Z" fill="white"/>
</svg>
