<svg width="728" height="345" viewBox="0 0 728 345" fill="none" xmlns="http://www.w3.org/2000/svg">
<rect width="728" height="345" rx="10" fill="#0F0F0F"/>
<circle cx="364.5" cy="210.5" r="44.5" fill="#4C8EF0"/>
<path d="M378.744 206.17C382.078 208.094 382.078 212.906 378.744 214.83L361.128 225.001C357.794 226.925 353.628 224.52 353.628 220.671L353.628 200.329C353.628 196.48 357.794 194.074 361.128 195.999L378.744 206.17Z" fill="white"/>
<path d="M211.45 123.18C210.466 123.18 209.56 123.018 208.732 122.694C207.904 122.37 207.184 121.92 206.572 121.344C205.96 120.756 205.486 120.072 205.15 119.292C204.814 118.5 204.646 117.636 204.646 116.7C204.646 115.764 204.814 114.906 205.15 114.126C205.486 113.334 205.96 112.65 206.572 112.074C207.184 111.486 207.904 111.03 208.732 110.706C209.56 110.382 210.46 110.22 211.432 110.22C212.416 110.22 213.316 110.382 214.132 110.706C214.96 111.03 215.68 111.486 216.292 112.074C216.904 112.65 217.378 113.334 217.714 114.126C218.05 114.906 218.218 115.764 218.218 116.7C218.218 117.636 218.05 118.5 217.714 119.292C217.378 120.084 216.904 120.768 216.292 121.344C215.68 121.92 214.96 122.37 214.132 122.694C213.316 123.018 212.422 123.18 211.45 123.18ZM211.432 121.128C212.068 121.128 212.656 121.02 213.196 120.804C213.736 120.588 214.204 120.282 214.6 119.886C214.996 119.478 215.302 119.01 215.518 118.482C215.746 117.942 215.86 117.348 215.86 116.7C215.86 116.052 215.746 115.464 215.518 114.936C215.302 114.396 214.996 113.928 214.6 113.532C214.204 113.124 213.736 112.812 213.196 112.596C212.656 112.38 212.068 112.272 211.432 112.272C210.796 112.272 210.208 112.38 209.668 112.596C209.14 112.812 208.672 113.124 208.264 113.532C207.868 113.928 207.556 114.396 207.328 114.936C207.112 115.464 207.004 116.052 207.004 116.7C207.004 117.336 207.112 117.924 207.328 118.464C207.556 119.004 207.868 119.478 208.264 119.886C208.66 120.282 209.128 120.588 209.668 120.804C210.208 121.02 210.796 121.128 211.432 121.128ZM225.143 123.18C224.351 123.18 223.643 123.06 223.019 122.82C222.395 122.58 221.855 122.214 221.399 121.722C220.955 121.218 220.613 120.582 220.373 119.814C220.133 119.046 220.013 118.134 220.013 117.078C220.013 116.31 220.079 115.608 220.211 114.972C220.343 114.336 220.541 113.766 220.805 113.262C221.069 112.746 221.399 112.29 221.795 111.894C222.203 111.498 222.677 111.168 223.217 110.904C223.757 110.64 224.369 110.436 225.053 110.292L229.517 109.338L229.841 111.354L225.791 112.182C225.563 112.23 225.287 112.302 224.963 112.398C224.651 112.482 224.327 112.614 223.991 112.794C223.667 112.962 223.361 113.208 223.073 113.532C222.797 113.844 222.569 114.252 222.389 114.756C222.221 115.248 222.137 115.866 222.137 116.61C222.137 116.838 222.143 117.012 222.155 117.132C222.179 117.24 222.197 117.36 222.209 117.492C222.233 117.612 222.245 117.792 222.245 118.032L221.399 117.15C221.639 116.538 221.969 116.016 222.389 115.584C222.821 115.14 223.319 114.804 223.883 114.576C224.459 114.336 225.083 114.216 225.755 114.216C226.655 114.216 227.453 114.402 228.149 114.774C228.845 115.146 229.391 115.668 229.787 116.34C230.183 117.012 230.381 117.774 230.381 118.626C230.381 119.514 230.165 120.3 229.733 120.984C229.301 121.668 228.689 122.208 227.897 122.604C227.117 122.988 226.199 123.18 225.143 123.18ZM225.323 121.362C225.863 121.362 226.337 121.248 226.745 121.02C227.165 120.78 227.489 120.456 227.717 120.048C227.957 119.64 228.077 119.184 228.077 118.68C228.077 118.176 227.957 117.738 227.717 117.366C227.489 116.982 227.165 116.676 226.745 116.448C226.337 116.22 225.851 116.106 225.287 116.106C224.747 116.106 224.261 116.214 223.829 116.43C223.409 116.646 223.079 116.946 222.839 117.33C222.611 117.702 222.497 118.134 222.497 118.626C222.497 119.13 222.617 119.592 222.857 120.012C223.097 120.432 223.427 120.762 223.847 121.002C224.279 121.242 224.771 121.362 225.323 121.362ZM243.365 123V121.056L243.239 120.642V117.24C243.239 116.58 243.041 116.07 242.645 115.71C242.249 115.338 241.649 115.152 240.845 115.152C240.305 115.152 239.771 115.236 239.243 115.404C238.727 115.572 238.289 115.806 237.929 116.106L237.047 114.468C237.563 114.072 238.175 113.778 238.883 113.586C239.603 113.382 240.347 113.28 241.115 113.28C242.507 113.28 243.581 113.616 244.337 114.288C245.105 114.948 245.489 115.974 245.489 117.366V123H243.365ZM240.341 123.126C239.621 123.126 238.991 123.006 238.451 122.766C237.911 122.514 237.491 122.172 237.191 121.74C236.903 121.296 236.759 120.798 236.759 120.246C236.759 119.706 236.885 119.22 237.137 118.788C237.401 118.356 237.827 118.014 238.415 117.762C239.003 117.51 239.783 117.384 240.755 117.384H243.545V118.878H240.917C240.149 118.878 239.633 119.004 239.369 119.256C239.105 119.496 238.973 119.796 238.973 120.156C238.973 120.564 239.135 120.888 239.459 121.128C239.783 121.368 240.233 121.488 240.809 121.488C241.361 121.488 241.853 121.362 242.285 121.11C242.729 120.858 243.047 120.486 243.239 119.994L243.617 121.344C243.401 121.908 243.011 122.346 242.447 122.658C241.895 122.97 241.193 123.126 240.341 123.126ZM255.168 123L251.694 118.392L253.53 117.258L257.814 123H255.168ZM248.274 123V113.388H250.524V123H248.274ZM249.858 119.148V117.276H253.116V119.148H249.858ZM253.746 118.464L251.64 118.212L255.168 113.388H257.58L253.746 118.464ZM263.458 123.126C262.45 123.126 261.55 122.916 260.758 122.496C259.978 122.064 259.366 121.476 258.922 120.732C258.478 119.988 258.256 119.142 258.256 118.194C258.256 117.234 258.478 116.388 258.922 115.656C259.366 114.912 259.978 114.33 260.758 113.91C261.55 113.49 262.45 113.28 263.458 113.28C264.394 113.28 265.216 113.472 265.924 113.856C266.644 114.228 267.19 114.78 267.562 115.512L265.834 116.52C265.546 116.064 265.192 115.728 264.772 115.512C264.364 115.296 263.92 115.188 263.44 115.188C262.888 115.188 262.39 115.308 261.946 115.548C261.502 115.788 261.154 116.136 260.902 116.592C260.65 117.036 260.524 117.57 260.524 118.194C260.524 118.818 260.65 119.358 260.902 119.814C261.154 120.258 261.502 120.6 261.946 120.84C262.39 121.08 262.888 121.2 263.44 121.2C263.92 121.2 264.364 121.092 264.772 120.876C265.192 120.66 265.546 120.324 265.834 119.868L267.562 120.876C267.19 121.596 266.644 122.154 265.924 122.55C265.216 122.934 264.394 123.126 263.458 123.126ZM273.885 123.126C272.817 123.126 271.881 122.916 271.077 122.496C270.285 122.064 269.667 121.476 269.223 120.732C268.791 119.988 268.575 119.142 268.575 118.194C268.575 117.234 268.785 116.388 269.205 115.656C269.637 114.912 270.225 114.33 270.969 113.91C271.725 113.49 272.583 113.28 273.543 113.28C274.479 113.28 275.313 113.484 276.045 113.892C276.777 114.3 277.353 114.876 277.773 115.62C278.193 116.364 278.403 117.24 278.403 118.248C278.403 118.344 278.397 118.452 278.385 118.572C278.385 118.692 278.379 118.806 278.367 118.914H270.357V117.42H277.179L276.297 117.888C276.309 117.336 276.195 116.85 275.955 116.43C275.715 116.01 275.385 115.68 274.965 115.44C274.557 115.2 274.083 115.08 273.543 115.08C272.991 115.08 272.505 115.2 272.085 115.44C271.677 115.68 271.353 116.016 271.113 116.448C270.885 116.868 270.771 117.366 270.771 117.942V118.302C270.771 118.878 270.903 119.388 271.167 119.832C271.431 120.276 271.803 120.618 272.283 120.858C272.763 121.098 273.315 121.218 273.939 121.218C274.479 121.218 274.965 121.134 275.397 120.966C275.829 120.798 276.213 120.534 276.549 120.174L277.755 121.56C277.323 122.064 276.777 122.454 276.117 122.73C275.469 122.994 274.725 123.126 273.885 123.126ZM279.337 122.982L279.445 121.092C279.529 121.104 279.607 121.116 279.679 121.128C279.751 121.14 279.817 121.146 279.877 121.146C280.249 121.146 280.537 121.032 280.741 120.804C280.945 120.576 281.095 120.27 281.191 119.886C281.299 119.49 281.371 119.052 281.407 118.572C281.455 118.08 281.491 117.588 281.515 117.096L281.677 113.388H289.453V123H287.203V114.684L287.725 115.296H283.153L283.639 114.666L283.513 117.204C283.477 118.056 283.405 118.848 283.297 119.58C283.201 120.3 283.045 120.93 282.829 121.47C282.625 122.01 282.337 122.43 281.965 122.73C281.605 123.03 281.143 123.18 280.579 123.18C280.399 123.18 280.201 123.162 279.985 123.126C279.781 123.09 279.565 123.042 279.337 122.982ZM296.965 123.126C295.897 123.126 294.961 122.916 294.157 122.496C293.365 122.064 292.747 121.476 292.303 120.732C291.871 119.988 291.655 119.142 291.655 118.194C291.655 117.234 291.865 116.388 292.285 115.656C292.717 114.912 293.305 114.33 294.049 113.91C294.805 113.49 295.663 113.28 296.623 113.28C297.559 113.28 298.393 113.484 299.125 113.892C299.857 114.3 300.433 114.876 300.853 115.62C301.273 116.364 301.483 117.24 301.483 118.248C301.483 118.344 301.477 118.452 301.465 118.572C301.465 118.692 301.459 118.806 301.447 118.914H293.437V117.42H300.259L299.377 117.888C299.389 117.336 299.275 116.85 299.035 116.43C298.795 116.01 298.465 115.68 298.045 115.44C297.637 115.2 297.163 115.08 296.623 115.08C296.071 115.08 295.585 115.2 295.165 115.44C294.757 115.68 294.433 116.016 294.193 116.448C293.965 116.868 293.851 117.366 293.851 117.942V118.302C293.851 118.878 293.983 119.388 294.247 119.832C294.511 120.276 294.883 120.618 295.363 120.858C295.843 121.098 296.395 121.218 297.019 121.218C297.559 121.218 298.045 121.134 298.477 120.966C298.909 120.798 299.293 120.534 299.629 120.174L300.835 121.56C300.403 122.064 299.857 122.454 299.197 122.73C298.549 122.994 297.805 123.126 296.965 123.126ZM309.272 123.126C308.492 123.126 307.778 122.946 307.13 122.586C306.494 122.226 305.984 121.686 305.6 120.966C305.228 120.234 305.042 119.31 305.042 118.194C305.042 117.066 305.222 116.142 305.582 115.422C305.954 114.702 306.458 114.168 307.094 113.82C307.73 113.46 308.456 113.28 309.272 113.28C310.22 113.28 311.054 113.484 311.774 113.892C312.506 114.3 313.082 114.87 313.502 115.602C313.934 116.334 314.15 117.198 314.15 118.194C314.15 119.19 313.934 120.06 313.502 120.804C313.082 121.536 312.506 122.106 311.774 122.514C311.054 122.922 310.22 123.126 309.272 123.126ZM303.944 126.492V113.388H306.086V115.656L306.014 118.212L306.194 120.768V126.492H303.944ZM309.02 121.2C309.56 121.2 310.04 121.08 310.46 120.84C310.892 120.6 311.234 120.252 311.486 119.796C311.738 119.34 311.864 118.806 311.864 118.194C311.864 117.57 311.738 117.036 311.486 116.592C311.234 116.136 310.892 115.788 310.46 115.548C310.04 115.308 309.56 115.188 309.02 115.188C308.48 115.188 307.994 115.308 307.562 115.548C307.13 115.788 306.788 116.136 306.536 116.592C306.284 117.036 306.158 117.57 306.158 118.194C306.158 118.806 306.284 119.34 306.536 119.796C306.788 120.252 307.13 120.6 307.562 120.84C307.994 121.08 308.48 121.2 309.02 121.2ZM322.098 123V121.056L321.972 120.642V117.24C321.972 116.58 321.774 116.07 321.378 115.71C320.982 115.338 320.382 115.152 319.578 115.152C319.038 115.152 318.504 115.236 317.976 115.404C317.46 115.572 317.022 115.806 316.662 116.106L315.78 114.468C316.296 114.072 316.908 113.778 317.616 113.586C318.336 113.382 319.08 113.28 319.848 113.28C321.24 113.28 322.314 113.616 323.07 114.288C323.838 114.948 324.222 115.974 324.222 117.366V123H322.098ZM319.074 123.126C318.354 123.126 317.724 123.006 317.184 122.766C316.644 122.514 316.224 122.172 315.924 121.74C315.636 121.296 315.492 120.798 315.492 120.246C315.492 119.706 315.618 119.22 315.87 118.788C316.134 118.356 316.56 118.014 317.148 117.762C317.736 117.51 318.516 117.384 319.488 117.384H322.278V118.878H319.65C318.882 118.878 318.366 119.004 318.102 119.256C317.838 119.496 317.706 119.796 317.706 120.156C317.706 120.564 317.868 120.888 318.192 121.128C318.516 121.368 318.966 121.488 319.542 121.488C320.094 121.488 320.586 121.362 321.018 121.11C321.462 120.858 321.78 120.486 321.972 119.994L322.35 121.344C322.134 121.908 321.744 122.346 321.18 122.658C320.628 122.97 319.926 123.126 319.074 123.126ZM327.006 123V113.388H329.256V121.092H333.846V113.388H336.096V123H327.006ZM335.448 125.142V122.946L335.97 123H333.846V121.092H337.554V125.142H335.448ZM339.557 123V113.388H341.807V119.724L347.117 113.388H349.169V123H346.919V116.664L341.627 123H339.557ZM356.48 123.126C355.496 123.126 354.62 122.916 353.852 122.496C353.084 122.064 352.478 121.476 352.034 120.732C351.59 119.988 351.368 119.142 351.368 118.194C351.368 117.234 351.59 116.388 352.034 115.656C352.478 114.912 353.084 114.33 353.852 113.91C354.62 113.49 355.496 113.28 356.48 113.28C357.476 113.28 358.358 113.49 359.126 113.91C359.906 114.33 360.512 114.906 360.944 115.638C361.388 116.37 361.61 117.222 361.61 118.194C361.61 119.142 361.388 119.988 360.944 120.732C360.512 121.476 359.906 122.064 359.126 122.496C358.358 122.916 357.476 123.126 356.48 123.126ZM356.48 121.2C357.032 121.2 357.524 121.08 357.956 120.84C358.388 120.6 358.724 120.252 358.964 119.796C359.216 119.34 359.342 118.806 359.342 118.194C359.342 117.57 359.216 117.036 358.964 116.592C358.724 116.136 358.388 115.788 357.956 115.548C357.524 115.308 357.038 115.188 356.498 115.188C355.946 115.188 355.454 115.308 355.022 115.548C354.602 115.788 354.266 116.136 354.014 116.592C353.762 117.036 353.636 117.57 353.636 118.194C353.636 118.806 353.762 119.34 354.014 119.796C354.266 120.252 354.602 120.6 355.022 120.84C355.454 121.08 355.94 121.2 356.48 121.2ZM363.832 123V113.388H366.082V117.294H370.924V113.388H373.174V123H370.924V119.202H366.082V123H363.832ZM376.19 123V113.388H378.44V117.294H383.282V113.388H385.532V123H383.282V119.202H378.44V123H376.19ZM392.831 123.126C391.847 123.126 390.971 122.916 390.203 122.496C389.435 122.064 388.829 121.476 388.385 120.732C387.941 119.988 387.719 119.142 387.719 118.194C387.719 117.234 387.941 116.388 388.385 115.656C388.829 114.912 389.435 114.33 390.203 113.91C390.971 113.49 391.847 113.28 392.831 113.28C393.827 113.28 394.709 113.49 395.477 113.91C396.257 114.33 396.863 114.906 397.295 115.638C397.739 116.37 397.961 117.222 397.961 118.194C397.961 119.142 397.739 119.988 397.295 120.732C396.863 121.476 396.257 122.064 395.477 122.496C394.709 122.916 393.827 123.126 392.831 123.126ZM392.831 121.2C393.383 121.2 393.875 121.08 394.307 120.84C394.739 120.6 395.075 120.252 395.315 119.796C395.567 119.34 395.693 118.806 395.693 118.194C395.693 117.57 395.567 117.036 395.315 116.592C395.075 116.136 394.739 115.788 394.307 115.548C393.875 115.308 393.389 115.188 392.849 115.188C392.297 115.188 391.805 115.308 391.373 115.548C390.953 115.788 390.617 116.136 390.365 116.592C390.113 117.036 389.987 117.57 389.987 118.194C389.987 118.806 390.113 119.34 390.365 119.796C390.617 120.252 390.953 120.6 391.373 120.84C391.805 121.08 392.291 121.2 392.831 121.2ZM400.184 123V113.388H402.434V119.724L407.744 113.388H409.796V123H407.546V116.664L402.254 123H400.184ZM404.846 112.254C403.886 112.254 403.148 112.032 402.632 111.588C402.116 111.132 401.852 110.472 401.84 109.608H403.334C403.346 110.04 403.478 110.382 403.73 110.634C403.994 110.886 404.36 111.012 404.828 111.012C405.284 111.012 405.644 110.886 405.908 110.634C406.184 110.382 406.328 110.04 406.34 109.608H407.87C407.858 110.472 407.588 111.132 407.06 111.588C406.544 112.032 405.806 112.254 404.846 112.254ZM417.797 123V113.388H427.013V123H424.781V114.774L425.303 115.296H419.525L420.047 114.774V123H417.797ZM435.377 123.126C434.597 123.126 433.883 122.946 433.235 122.586C432.599 122.226 432.089 121.686 431.705 120.966C431.333 120.234 431.147 119.31 431.147 118.194C431.147 117.066 431.327 116.142 431.687 115.422C432.059 114.702 432.563 114.168 433.199 113.82C433.835 113.46 434.561 113.28 435.377 113.28C436.325 113.28 437.159 113.484 437.879 113.892C438.611 114.3 439.187 114.87 439.607 115.602C440.039 116.334 440.255 117.198 440.255 118.194C440.255 119.19 440.039 120.06 439.607 120.804C439.187 121.536 438.611 122.106 437.879 122.514C437.159 122.922 436.325 123.126 435.377 123.126ZM430.049 126.492V113.388H432.191V115.656L432.119 118.212L432.299 120.768V126.492H430.049ZM435.125 121.2C435.665 121.2 436.145 121.08 436.565 120.84C436.997 120.6 437.339 120.252 437.591 119.796C437.843 119.34 437.969 118.806 437.969 118.194C437.969 117.57 437.843 117.036 437.591 116.592C437.339 116.136 436.997 115.788 436.565 115.548C436.145 115.308 435.665 115.188 435.125 115.188C434.585 115.188 434.099 115.308 433.667 115.548C433.235 115.788 432.893 116.136 432.641 116.592C432.389 117.036 432.263 117.57 432.263 118.194C432.263 118.806 432.389 119.34 432.641 119.796C432.893 120.252 433.235 120.6 433.667 120.84C434.099 121.08 434.585 121.2 435.125 121.2ZM446.778 123.126C445.794 123.126 444.918 122.916 444.15 122.496C443.382 122.064 442.776 121.476 442.332 120.732C441.888 119.988 441.666 119.142 441.666 118.194C441.666 117.234 441.888 116.388 442.332 115.656C442.776 114.912 443.382 114.33 444.15 113.91C444.918 113.49 445.794 113.28 446.778 113.28C447.774 113.28 448.656 113.49 449.424 113.91C450.204 114.33 450.81 114.906 451.242 115.638C451.686 116.37 451.908 117.222 451.908 118.194C451.908 119.142 451.686 119.988 451.242 120.732C450.81 121.476 450.204 122.064 449.424 122.496C448.656 122.916 447.774 123.126 446.778 123.126ZM446.778 121.2C447.33 121.2 447.822 121.08 448.254 120.84C448.686 120.6 449.022 120.252 449.262 119.796C449.514 119.34 449.64 118.806 449.64 118.194C449.64 117.57 449.514 117.036 449.262 116.592C449.022 116.136 448.686 115.788 448.254 115.548C447.822 115.308 447.336 115.188 446.796 115.188C446.244 115.188 445.752 115.308 445.32 115.548C444.9 115.788 444.564 116.136 444.312 116.592C444.06 117.036 443.934 117.57 443.934 118.194C443.934 118.806 444.06 119.34 444.312 119.796C444.564 120.252 444.9 120.6 445.32 120.84C445.752 121.08 446.238 121.2 446.778 121.2ZM454.131 123V113.388H461.511V115.296H455.859L456.381 114.792V123H454.131ZM468.477 123.126C467.697 123.126 466.983 122.946 466.335 122.586C465.699 122.226 465.189 121.686 464.805 120.966C464.433 120.234 464.247 119.31 464.247 118.194C464.247 117.066 464.427 116.142 464.787 115.422C465.159 114.702 465.663 114.168 466.299 113.82C466.935 113.46 467.661 113.28 468.477 113.28C469.425 113.28 470.259 113.484 470.979 113.892C471.711 114.3 472.287 114.87 472.707 115.602C473.139 116.334 473.355 117.198 473.355 118.194C473.355 119.19 473.139 120.06 472.707 120.804C472.287 121.536 471.711 122.106 470.979 122.514C470.259 122.922 469.425 123.126 468.477 123.126ZM463.149 126.492V113.388H465.291V115.656L465.219 118.212L465.399 120.768V126.492H463.149ZM468.225 121.2C468.765 121.2 469.245 121.08 469.665 120.84C470.097 120.6 470.439 120.252 470.691 119.796C470.943 119.34 471.069 118.806 471.069 118.194C471.069 117.57 470.943 117.036 470.691 116.592C470.439 116.136 470.097 115.788 469.665 115.548C469.245 115.308 468.765 115.188 468.225 115.188C467.685 115.188 467.199 115.308 466.767 115.548C466.335 115.788 465.993 116.136 465.741 116.592C465.489 117.036 465.363 117.57 465.363 118.194C465.363 118.806 465.489 119.34 465.741 119.796C465.993 120.252 466.335 120.6 466.767 120.84C467.199 121.08 467.685 121.2 468.225 121.2ZM481.303 123V121.056L481.177 120.642V117.24C481.177 116.58 480.979 116.07 480.583 115.71C480.187 115.338 479.587 115.152 478.783 115.152C478.243 115.152 477.709 115.236 477.181 115.404C476.665 115.572 476.227 115.806 475.867 116.106L474.985 114.468C475.501 114.072 476.113 113.778 476.821 113.586C477.541 113.382 478.285 113.28 479.053 113.28C480.445 113.28 481.519 113.616 482.275 114.288C483.043 114.948 483.427 115.974 483.427 117.366V123H481.303ZM478.279 123.126C477.559 123.126 476.929 123.006 476.389 122.766C475.849 122.514 475.429 122.172 475.129 121.74C474.841 121.296 474.697 120.798 474.697 120.246C474.697 119.706 474.823 119.22 475.075 118.788C475.339 118.356 475.765 118.014 476.353 117.762C476.941 117.51 477.721 117.384 478.693 117.384H481.483V118.878H478.855C478.087 118.878 477.571 119.004 477.307 119.256C477.043 119.496 476.911 119.796 476.911 120.156C476.911 120.564 477.073 120.888 477.397 121.128C477.721 121.368 478.171 121.488 478.747 121.488C479.299 121.488 479.791 121.362 480.223 121.11C480.667 120.858 480.985 120.486 481.177 119.994L481.555 121.344C481.339 121.908 480.949 122.346 480.385 122.658C479.833 122.97 479.131 123.126 478.279 123.126ZM486.211 123V113.388H488.569L492.439 120.21H491.503L495.571 113.388H497.677L497.695 123H495.661V115.8L496.021 116.034L492.421 121.992H491.449L487.831 115.872L488.263 115.764V123H486.211ZM500.713 123V113.388H503.071L506.941 120.21H506.005L510.073 113.388H512.179L512.197 123H510.163V115.8L510.523 116.034L506.923 121.992H505.951L502.333 115.872L502.765 115.764V123H500.713ZM519.697 123.126C518.629 123.126 517.693 122.916 516.889 122.496C516.097 122.064 515.479 121.476 515.035 120.732C514.603 119.988 514.387 119.142 514.387 118.194C514.387 117.234 514.597 116.388 515.017 115.656C515.449 114.912 516.037 114.33 516.781 113.91C517.537 113.49 518.395 113.28 519.355 113.28C520.291 113.28 521.125 113.484 521.857 113.892C522.589 114.3 523.165 114.876 523.585 115.62C524.005 116.364 524.215 117.24 524.215 118.248C524.215 118.344 524.209 118.452 524.197 118.572C524.197 118.692 524.191 118.806 524.179 118.914H516.169V117.42H522.991L522.109 117.888C522.121 117.336 522.007 116.85 521.767 116.43C521.527 116.01 521.197 115.68 520.777 115.44C520.369 115.2 519.895 115.08 519.355 115.08C518.803 115.08 518.317 115.2 517.897 115.44C517.489 115.68 517.165 116.016 516.925 116.448C516.697 116.868 516.583 117.366 516.583 117.942V118.302C516.583 118.878 516.715 119.388 516.979 119.832C517.243 120.276 517.615 120.618 518.095 120.858C518.575 121.098 519.127 121.218 519.751 121.218C520.291 121.218 520.777 121.134 521.209 120.966C521.641 120.798 522.025 120.534 522.361 120.174L523.567 121.56C523.135 122.064 522.589 122.454 521.929 122.73C521.281 122.994 520.537 123.126 519.697 123.126Z" fill="white"/>
</svg>
